<svg height="512" viewBox="0 0 50 58" width="512" xmlns="http://www.w3.org/2000/svg"><g id="Page-1" fill="none" fill-rule="evenodd"><g id="002---Happy-Santa" fill-rule="nonzero" transform="translate(-1)"><path id="Shape" d="m22 0s12.66 0 21.129 8.426c3.8129378 3.8835073 5.925113 9.1238318 5.871 14.566v6.008h-9z" fill="#c03a2b"/><path id="Shape" d="m51 32c0 3.3137085-2.6862915 6-6 6-.14 0-.28 0-.42-.01-1.9502638-.1235928-3.6978855-1.2470638-4.62-2.97l.16-4.01.1-2.54c1.0888048-1.5608878 2.876938-2.4848813 4.78-2.47 3.3137085 0 6 2.6862915 6 6z" fill="#ecf0f1"/><path id="Shape" d="m45 36c.0009286.6854289-.1421621 1.3634062-.42 1.99-1.9502638-.1235928-3.6978855-1.2470638-4.62-2.97l.16-4.01c1.1745812.0177025 2.3034843.4579037 3.18 1.24 1.0824663.9452178 1.7024969 2.3129323 1.7 3.75z" fill="#d1d4d1"/><path id="Shape" d="m41.3 34.25c.468124-1.7106068.7035764-3.4764998.7-5.25-.0012188-.7080608-.0379316-1.4156154-.11-2.12-.2162416-2.0282441-.7423612-4.0113103-1.56-5.88l-17.33-2-19.33 2c-1.82265133 4.1773659-2.16485008 8.8517302-.97 13.25l19.3 4.75z" fill="#fdd7ad"/><path id="Shape" d="m39.94 42.61c.22 2.2.27 9.69-9.01 11.39 0 0-1.98 4-8.93 4s-8.93-4-8.93-4c-9.28-1.7-9.23-9.19-9.01-11.39-1.93896452-.8118826-3.16306878-2.7498249-3.06321371-4.849531.09985508-2.0997061 1.50234318-3.9127364 3.50960366-4.5369496 2.00726048-.6242131 4.19059764.0737056 5.46361005 1.7464806 0 .0055228.00447715.01.01.01.8040583.286919 1.6814366.2939662 2.49.02 2.72-1 5.45-3 9.52-1.01 0 .0026522-.0010536.0051957-.0029289.0070711-.0018754.0018753-.0044189.0029289-.0070711.0029289h.02c-.0055228 0-.01-.0044772-.01-.01 4.07-1.99 6.8.01 9.52 1.01.8220728.2828714 1.7172804.2687179 2.53-.04 1.276087-1.6693597 3.4597399-2.3627695 5.465134-1.7354305s3.4045959 2.4415583 3.5018502 4.5405346c.0972543 2.0989762-1.1281922 4.0348064-3.0669842 4.8448959z" fill="#ecf0f1"/><path id="Shape" d="m5.3 13c1.49-7.4 8.4-13 16.7-13s15.21 5.6 16.7 13l-16.7 2z" fill="#e64c3c"/><g fill="#ecf0f1"><rect id="Rectangle-path" height="8" rx="2" width="40" x="2" y="13"/><circle id="Oval" cx="16" cy="28" r="4"/><circle id="Oval" cx="28" cy="28" r="4"/></g><path id="Shape" d="m30.0000059 38c.0034767 2.8569129-1.5226438 5.4971014-4.0000059 6.92-2.4722436 1.4400854-5.5277564 1.4400854-8 0-2.4773621-1.4228986-4.0034826-4.0630871-4.0000059-6.92z" fill="#802d40"/><circle id="Oval" cx="17" cy="28" fill="#35495e" r="2"/><circle id="Oval" cx="27" cy="28" fill="#35495e" r="2"/><circle id="Oval" cx="16" cy="27" fill="#ecf0f1" r="1"/><circle id="Oval" cx="26" cy="27" fill="#ecf0f1" r="1"/><path id="Shape" d="m26 44v.92c-2.4722436 1.4400854-5.5277564 1.4400854-8 0v-.92c.0000001-2.209139 1.790861-3.9999999 4-3.9999999s3.9999999 1.7908609 4 3.9999999z" fill="#ff5364"/></g></g></svg>