<svg height="512" viewBox="0 0 50 58" width="512" xmlns="http://www.w3.org/2000/svg"><g id="Page-1" fill="none" fill-rule="evenodd"><g id="037---Penguin" fill-rule="nonzero"><path id="Shape" d="m21.71 51.77c.5790722 1.8665086.2175196 3.8979124-.97 5.45-4.31-1.55-9.85.78-9.85.78-1.97-3.11-6.89-2.33-6.89-2.33 1.31-3.11 6.89-6.21 6.89-6.21l1.65-.92z" fill="#f0c419"/><path id="Shape" d="m37.46 48.54 1.65.92s5.58 3.1 6.89 6.21c0 0-4.92-.78-6.89 2.33 0 0-5.54-2.33-9.85-.78-1.1875196-1.5520876-1.5490722-3.5834914-.97-5.45z" fill="#f0c419"/><ellipse id="Oval" cx="25" cy="26" fill="#3f5c6c" rx="25" ry="26"/><path id="Shape" d="m19.78 32.08c.1035084.3707017.1803712.7483317.23 1.13.5 3.66-1.2 6.67-4.65 7.79 0 0 1.64 5 9.64 5s9.64-5 9.64-5c-3.45-1.12-5.15-4.13-4.65-7.79.0496288-.3816683.1264916-.7592983.23-1.13l3.34-5.9c1.1-1.28 2.31-2.52 3.4-3.88 1.3115609-1.5348186 2.2737798-3.3364199 2.82-5.28.6418315-2.6363026-.0410309-5.419993-1.83-7.46-3.22-3.56-8.17-3.09-11.75-.55-.7154843.52004846-1.6845157.52004846-2.4 0-3.58-2.54-8.53-3.01-11.75.55-1.7845026 2.0423311-2.46679652 4.8237041-1.83 7.46.5462202 1.9435801 1.5084391 3.7451814 2.82 5.28 1.09 1.36 2.3 2.6 3.4 3.88z" fill="#ecf0f1"/><circle id="Oval" cx="20" cy="15" fill="#35495e" r="3"/><circle id="Oval" cx="30" cy="15" fill="#35495e" r="3"/><path id="Shape" d="m34.99 28c.0541195.6512588-.268112 1.2763103-.83 1.61l-8.12 5.09c-.6356643.3999193-1.4443357.3999193-2.08 0l-8.12-5.09c-.561888-.3336897-.8841195-.9587412-.83-1.61z" fill="#f29c1f"/><path id="Shape" d="m34.99 28h-19.98c.0377807-.4816414.2775365-.9248263.66-1.22l8.13-6.37c.705505-.5498944 1.694495-.5498944 2.4 0l8.13 6.37c.3824635.2951737.6222193.7383586.66 1.22z" fill="#f0c419"/><g fill="#ecf0f1"><circle id="Oval" cx="19" cy="14" r="1"/><circle id="Oval" cx="29" cy="14" r="1"/></g></g></g></svg>