<svg height="512" viewBox="0 0 56 58" width="512" xmlns="http://www.w3.org/2000/svg"><g id="Page-1" fill="none" fill-rule="evenodd"><g id="038---Happy-Bell" fill-rule="nonzero"><path id="Shape" d="m23.15 4.95c-.100765-.30653906-.1514157-.62732714-.15-.95 0-2.21 2.24-4 5-4s5 1.79 5 4c.0014157.32267286-.049235.64346094-.15.95z" fill="#f29c1f"/><path id="Shape" d="m28 58c15.464 0 28-2.281 28-5.094 0-9.4-6.592-18.159-10.68-26.547-2.083-4.275-3.525-8.665-5.163-13.082-1.887-5.085-5.515-9.136-12.157-9.277-6.642.141-10.27 4.192-12.157 9.277-1.638 4.417-3.08 8.807-5.163 13.082-4.088 8.388-10.68 17.151-10.68 26.547 0 2.813 12.536 5.094 28 5.094z" fill="#f0c419"/><path id="Shape" d="m33.9 48.12c.0683332.2882913.1019054.583727.1.88 0 2.76-2.69 5-6 5s-6-2.24-6-5c-.0019054-.296273.0316668-.5917087.1-.88z" fill="#e57e25"/><path id="Shape" d="m22.24 26.759c-.2651948-.0000566-.5195073-.1054506-.707-.293-1.3436951-1.3282188-3.316517-1.7950904-5.113-1.21-.5246705.1753504-1.0921496-.1078295-1.2675-.6325s.1078295-1.0921496.6325-1.2675c2.5153127-.8373941 5.2878609-.1820012 7.162 1.693.2859079.2859943.3714219.7160366.216678 1.0896546-.1547439.3736179-.5192821.6172591-.923678.6173454z" fill="#e57e25"/><circle id="Oval" cx="18" cy="30.5" fill="#ecf0f1" r="3.5"/><path id="Shape" d="m33.76 26.759c-.4043959-.0000863-.7689341-.2437275-.923678-.6173454-.1547439-.373618-.0692299-.8036603.216678-1.0896546 1.8741391-1.8750012 4.6466873-2.5303941 7.162-1.693.3394023.1134318.5925078.3993161.6639741.7499631.0714663.3506469-.049564.7127849-.3175.95s-.6420718.3134687-.9814741.2000369c-1.7965219-.584145-3.7688464-.1173911-5.113 1.21-.1879828.1864497-.442235.2907399-.707.29z" fill="#e57e25"/><circle id="Oval" cx="38" cy="30.5" fill="#ecf0f1" r="3.5"/><path id="Shape" d="m20.9 36c-.2562059-.0001631-.5003376.1088761-.6712023.2997864s-.2522651.4455941-.2237977.7002136c.5316272 4.0081995 3.949698 7.0028491 7.993 7.0028491s7.4613728-2.9946496 7.993-7.0028491c.0285695-.2554884-.0534826-.5109989-.2254605-.7020855-.171978-.1910866-.4174637-.2995069-.6745395-.2979145z" fill="#802d40"/><path id="Shape" d="m6 50.912c-.51111536.0009036-.94064804-.3837649-.99590645-.8918852-.0552584-.5081203.28154517-.9761284.78090645-1.0851148 5.556-1.229 13.869-1.935 22.807-1.935 7.235802-.0823914 14.4645083.4815147 21.6 1.685.3623971.0555389.6653462.3049376.7894654.6499169.1241193.3449792.0495059.7302203-.1944378 1.0039131-.2439436.2736928-.6181001.3919498-.9750276.30817-7.0104204-1.1778067-14.1118004-1.7289836-21.22-1.647-8.8 0-16.954.688-22.376 1.888-.07092594.0157533-.14334591.0238-.216.024z" fill="#f29c1f"/><path id="Shape" d="m33.01 42.25v.01c-2.9371918 2.3235572-7.0874519 2.3194152-10.02-.01 1.2419953-1.4714597 3.0850776-2.2991913 5.01-2.25 1.9249224-.0491913 3.7680047.7785403 5.01 2.25z" fill="#ff5364"/><circle id="Oval" cx="19" cy="31" fill="#35495e" r="2"/><circle id="Oval" cx="37" cy="31" fill="#35495e" r="2"/><g fill="#ecf0f1"><circle id="Oval" cx="18" cy="30" r="1"/><circle id="Oval" cx="36" cy="30" r="1"/></g></g></g></svg>