<svg height="512" viewBox="0 0 50 58" width="512" xmlns="http://www.w3.org/2000/svg"><g id="Page-1" fill="none" fill-rule="evenodd"><g id="041---Happy-Bear" fill-rule="nonzero"><path id="Shape" d="m22 51.8v3.2c-.0049422 1.6548028-1.3451972 2.9950578-3 3h-6c-1.6548028-.0049422-2.9950578-1.3451972-3-3v-8.22z" fill="#d1d4d1"/><path id="Shape" d="m40 46.78v8.22c-.0049422 1.6548028-1.3451972 2.9950578-3 3h-6c-1.6548028-.0049422-2.9950578-1.3451972-3-3v-3.2z" fill="#d1d4d1"/><path id="Shape" d="m50 26v14c.0013291 1.0612728-.4196715 2.0794609-1.1701053 2.8298947s-1.7686219 1.1714344-2.8298947 1.1701053c-.8114551.0009468-1.6037033-.2468489-2.27-.71 0-.01-.01-.01-.01-.02-.01.01-.02 0-.03-.01-.43.51-.89 1-1.36 1.46-4.5640951 4.6562511-10.809905 7.2799935-17.33 7.2799935s-12.7659049-2.6237424-17.33-7.2799935c-.47-.46-.93-.95-1.36-1.46-.02.01-.03.02-.05.03-.66257904.4630702-1.45164113.7109614-2.26.71-2.209139 0-4-1.790861-4-4v-14c-.02018271-5.6358736 1.75568957-11.1316204 5.07-15.69l6.56-6.27c8.0994607-5.38676814 18.6405393-5.38676814 26.74 0l6.56 6.27c3.3143104 4.5583796 5.0901827 10.0541264 5.07 15.69z" fill="#ecf0f1"/><circle id="Oval" cx="20" cy="12" fill="#2fa8cc" r="4"/><circle id="Oval" cx="30" cy="12" fill="#2fa8cc" r="4"/><path id="Shape" d="m9 28.33v13c.00132383 1.2575329-.47391458 2.4688548-1.33 3.39-.47-.46-.93-.95-1.36-1.46-.02.01-.03.02-.05.03.47663855-.5417078.739695-1.2384519.74-1.96.04147295-.8094157-.26266306-1.5983779-.83670994-2.1705177-.57404688-.5721397-1.3640169-.8736486-2.17329006-.8294823-.55228473-.0027615-.99776137-.4527153-.99499994-1.005.00276142-.5522847.45271521-.9977614 1.00499994-.995 1.06754628.0125497 2.10895155.3319139 3 .92v-8.92c0-.5522847.44771525-1 1-1s1 .4477153 1 1z" fill="#d1d4d1"/><path id="Shape" d="m47 37.33c0 .5522847-.4477153 1-1 1-.8078448-.0421855-1.5956637.2603145-2.1676746.8323254s-.8745109 1.3598298-.8323254 2.1676746c.0008314.7118618.2562076 1.3999588.72 1.94-.01.01-.02 0-.03-.01-.43.51-.89 1-1.36 1.46-.8552296-.9216831-1.3303306-2.1326547-1.33-3.39v-13c0-.5522847.4477153-1 1-1s1 .4477153 1 1v8.92c.8910484-.5880861 1.9324537-.9074503 3-.92.5522847 0 1 .4477153 1 1z" fill="#d1d4d1"/><path id="Shape" d="m29 29.99v.01c0 2.209139-1.790861 4-4 4s-4-1.790861-4-4v-.01c1.4147374.3099368 2.8931447-.055969 4-.99 1.1068553.934031 2.5852626 1.2999368 4 .99z" fill="#802d40"/><path id="Shape" d="m33.781 27.375c-.1657145-.2072013-.4069781-.3400545-.670678-.3693128-.2636998-.0292583-.5282179.0474769-.735322.2133128-3.391 2.714-5.6 1.792-6.375 1.294v-3.513c0-.5522847-.4477153-1-1-1s-1 .4477153-1 1v3.516c-.76.493-2.972 1.424-6.375-1.3-.4313344-.345178-1.060822-.2753344-1.406.156s-.2753344 1.060822.156 1.406c1.5369616 1.3822332 3.5051209 2.1896379 5.57 2.285 1.0763233.0061491 2.1334651-.2848677 3.055-.841.9211662.5573282 1.9783698.8494001 3.055.844 2.0648791-.0953621 4.0330384-.9027668 5.57-2.285.2072013-.1657145.3400545-.4069781.3693128-.670678.0292583-.2636998-.0474769-.5282179-.2133128-.735322z" fill="#d1d4d1"/><path id="Shape" d="m30 20c0 .914-1.523 2.647-2.888 4.017-1.1666953 1.1657736-3.0573047 1.1657736-4.224 0-1.365-1.37-2.888-3.103-2.888-4.017 0-1.657 2.239-3 5-3s5 1.343 5 3z" fill="#fb7b76"/><path id="Shape" d="m13 6.276s-2.862-7.156-8.587-2.863-2.862 8.587 0 7.156c.75594594-.3982062 1.64167118-.4706196 2.45225788-.200487.8105867.2701327 1.4758012.8594056 1.84174212 1.631487z" fill="#ecf0f1"/><path id="Shape" d="m37 6.276s2.862-7.156 8.587-2.863 2.862 8.587 0 7.156c-.7559459-.3982062-1.6416712-.4706196-2.4522579-.200487-.8105867.2701327-1.4758012.8594056-1.8417421 1.631487z" fill="#ecf0f1"/><path id="Shape" d="m8.708 13c-.38082562.0020788-.72977408-.2123306-.9-.553-.23897878-.542278-.69595057-.9583432-1.25819866-1.1455687-.56224808-.1872256-1.17742871-.1281814-1.69380134.1625687-1.47752805.8091187-3.32963422.3269136-4.225-1.1-1.124-1.825-.579-4.929 3.182-7.751 1.48683828-1.31539633 3.51747785-1.83162275 5.452-1.386 3.11.872 4.6 4.522 4.663 4.677.1919381.50921182-.0585407 1.0784278-.5636532 1.28090823-.5051124.20248042-1.0794116-.03611337-1.2923468-.53690823-.011-.028-1.2-2.9-3.354-3.5-1.33201168-.25015744-2.70388999.14397949-3.7 1.063-2.736 2.053-3.3 4.083-2.677 5.1.35026307.54991213 1.07988981.7119519 1.63.362 1.34992207-.76626373 3.02573474-.65904628 4.267.273.56404155.4317405 1.02855864.9798161 1.362 1.607.15470121.3095844.13833125.6771505-.04327827.9717569-.18160951.2946065-.50263761.4743667-.84872173.4752431z" fill="#d1d4d1"/><path id="Shape" d="m41.292 13c-.3451138-.0012143-.6652106-.1802949-.8468219-.4737609-.1816114-.2934661-.1990666-.6598362-.0461781-.9692391.3354174-.6270538.8020051-1.1744758 1.368-1.605 1.2412653-.93204628 2.9170779-1.03926373 4.267-.273.5501102.3499519 1.2797369.18791213 1.63-.362.628-1.017.059-3.047-2.677-5.1-.998333-.92361338-2.3763573-1.3174937-3.712-1.061-2.135.6-3.335 3.466-3.347 3.494-.2071068.51252025-.7904798.76010678-1.303.553s-.7601068-.79047975-.553-1.303c.061-.155 1.553-3.8 4.663-4.677 1.9345183-.44528078 3.9650018.07090597 5.452 1.386 3.761 2.822 4.306 5.926 3.178 7.751-.8956828 1.4264811-2.7474061 1.9085865-4.225 1.1-.5173988-.2914376-1.1339988-.3501944-1.697129-.161722-.5631301.1884723-1.0201392.606552-1.257871 1.150722-.1710705.3363344-.5156649.5489565-.893.551z" fill="#d1d4d1"/><g fill="#35495e"><path id="Shape" d="m15 56v2h-2v-2c0-.5522847.4477153-1 1-1s1 .4477153 1 1z"/><path id="Shape" d="m19 56v2h-2v-2c0-.5522847.4477153-1 1-1s1 .4477153 1 1z"/><path id="Shape" d="m33 56v2h-2v-2c0-.5522847.4477153-1 1-1s1 .4477153 1 1z"/><path id="Shape" d="m37 56v2h-2v-2c0-.5522847.4477153-1 1-1s1 .4477153 1 1z"/><circle id="Oval" cx="21" cy="12" r="2"/><circle id="Oval" cx="29" cy="12" r="2"/></g><circle id="Oval" cx="20" cy="11" fill="#ecf0f1" r="1"/><circle id="Oval" cx="28" cy="11" fill="#ecf0f1" r="1"/></g></g></svg>