<svg height="512" viewBox="0 0 38 58" width="512" xmlns="http://www.w3.org/2000/svg"><g id="Page-1" fill="none" fill-rule="evenodd"><g id="042---Happy-Tree" fill-rule="nonzero"><path id="Shape" d="m23 52v4.833c.0387358.5959648-.4051372 1.1139646-1 1.167h-6c-.5948628-.0530354-1.0387358-.5710352-1-1.167v-4.833z" fill="#a56a43"/><path id="Shape" d="m38 46c0 4-8 7-19 7s-19-3-19-7c0-2.36 1.75-4.73 3.18-6.27.56660649-.6173964 1.17468584-1.1954059 1.82-1.73l.31-.26c-1.68-.05-3.31-.85-3.31-3.74 0-3.91 2.97-7.39 5.04-9.34.61892083-.592729 1.27347326-1.1470948 1.96-1.66l.24-.17c-1.33614849-.2720654-2.28202719-1.4670818-2.24-2.83 0-3.19 5.1-6.39 7.15-7.54h9.7c2.05 1.15 7.15 4.35 7.15 7.54.0420272 1.3629182-.9038515 2.5579346-2.24 2.83l.24.17c.6865267.5129052 1.3410792 1.067271 1.96 1.66 2.07 1.95 5.04 5.43 5.04 9.34 0 2.89-1.63 3.69-3.31 3.74l.31.26c.6453142.5345941 1.2533935 1.1126036 1.82 1.73 1.43 1.54 3.18 3.91 3.18 6.27z" fill="#4fba6f"/><path id="Shape" d="m19.559.339 1.986 3.961c.0922085.18080971.2669555.30514898.468.333l4.455.636c.229647.02744651.4230729.18444209.4971707.40353244.0740978.21909034.0156734.46126334-.1501707.62246756l-3.235 3.105c-.1435324.13574644-.2095989.33432139-.176.529l.762 4.371c.0323736.2297382-.0666537.458254-.2564244.591726-.1897706.1334721-.43831.1494115-.6435756.041274l-3.969-2.053c-.1833207-.0939933-.4006793-.0939933-.584 0l-3.969 2.053c-.2056156.1109434-.4562191.0964477-.6476716-.0374633-.1914524-.1339109-.2910205-.3643419-.2573284-.5955367l.762-4.371c.0335989-.19467861-.0324676-.39325356-.176-.529l-3.235-3.1c-.1658441-.16120422-.2242685-.40337722-.1501707-.62246756.0740978-.21909035.2675237-.37608593.4971707-.40353244l4.455-.636c.2010445-.02785102.3757915-.15219029.468-.333l1.986-3.959c.1079815-.20663381.3212525-.33673823.5543949-.33820454.2331424-.0014663.4480331.12594528.5586051.33120454z" fill="#f0c419"/><g fill="#24ae5f"><path id="Shape" d="m8.4 39.3c-1.32498192.3257007-2.68564192.4836045-4.05.47-.39 0-.79-.01-1.17-.04.56660649-.6173964 1.17468584-1.1954059 1.82-1.73l.31-.26c.84032603-.0249732 1.67535195-.1423463 2.49-.35.34118864-.1071797.71363963-.0241958.97705427.2176924.26341465.2418882.377774.6059321.3.955-.07777399.3490678-.33586563.6301279-.67705427.7373076z"/><path id="Shape" d="m12 23.95c-.0266663.5326668-.4666665.9506671-1 .95h-.05c-.18-.01-.42-.02-.69-.02-1.27-.04-2.34-.1-3.22-.22.61892083-.592729 1.27347326-1.1470948 1.96-1.66l.24-.17c.33.02.69.04 1.07.05.3 0 .55.01.74.02.2653346.0129343.5146187.1309119.6928466.3279007.1782279.1969887.2707509.4567979.2571534.7220993z"/><path id="Shape" d="m30.96 24.66c-.88.12-1.95.18-3.22.22-.27 0-.51.01-.69.02h-.05c-.5522847.0138071-1.0111929-.4227153-1.025-.975s.4227153-1.0111929.975-1.025c.19-.01.44-.02.74-.02.38-.01.74-.03 1.07-.05l.24.17c.6865267.5129052 1.3410792 1.067271 1.96 1.66z"/><path id="Shape" d="m34.82 39.73c-.38.03-.78.04-1.17.04-1.3643581.0136045-2.7250181-.1442993-4.05-.47-.3411886-.1071797-.5992803-.3882398-.6770543-.7373076-.077774-.3490679.0365854-.7131118.3-.955.2634147-.2418882.6358657-.3248721.9770543-.2176924.814648.2076537 1.649674.3250268 2.49.35l.31.26c.6453142.5345941 1.2533935 1.1126036 1.82 1.73z"/></g><circle id="Oval" cx="14.996" cy="26.996" fill="#ecf0f1" r="3.004"/><circle id="Oval" cx="23.004" cy="26.996" fill="#ecf0f1" r="3.004"/><path id="Shape" d="m26 32.99c0 3.8659932-3.1340068 7-7 7s-7-3.1340068-7-7z" fill="#802d40"/><circle id="Oval" cx="15.5" cy="27" fill="#35495e" r="1.5"/><circle id="Oval" cx="22.5" cy="27" fill="#35495e" r="1.5"/><circle id="Oval" cx="15" cy="26" fill="#ecf0f1" r="1"/><circle id="Oval" cx="22" cy="26" fill="#ecf0f1" r="1"/><path id="Shape" d="m22.99 38.74c-2.398927 1.6666783-5.581073 1.6666783-7.98 0 .1483608-2.0942023 1.8905491-3.7173341 3.99-3.7173341s3.8416392 1.6231318 3.99 3.7173341z" fill="#ff5364"/></g></g></svg>