<svg height="512" viewBox="0 0 58 58" width="512" xmlns="http://www.w3.org/2000/svg"><g id="Page-1" fill="none" fill-rule="evenodd"><g id="058---Bear" fill-rule="nonzero"><path id="Shape" d="m6.17 19.21c.9-3.7 5.69-19.21 22.83-19.21 16.592 0 21.6 14.531 22.717 18.813z" fill="#e64c3c"/><path id="Shape" d="m54.12 23.4c2.5383491.9561335 4.1178245 3.4981963 3.8507092 6.197466-.2671152 2.6992697-2.3141932 4.8824549-4.9907092 5.322534l-47.96-.02c-2.67651599-.4400791-4.72359401-2.6232643-4.99070925-5.322534-.26711523-2.6992697 1.31236013-5.2413325 3.85070925-6.197466z" fill="#a56a43"/><path id="Shape" d="m47.831 19.133c7.7626229 9.8275792 6.6637581 23.9719061-2.523559 32.482654-9.187317 8.510748-23.3742561 8.5265531-32.5805132.0362966-9.20625725-8.4902564-10.33663442-22.6320998-2.5959278-32.4769506z" fill="#cb8252"/><g fill="#ecf0f1"><path id="Shape" d="m52.41 19.65c.45.35.81.65 1.07.88.3717291.3224835.6104895.7714955.67 1.26.4151577 1.7409848-.4962237 3.5255968-2.15 4.21 0 0-9-6-23-6s-23 6-23 6c-1.65377633-.6844032-2.56515774-2.4690152-2.15-4.21.05951052-.4885045.29827089-.9375165.67-1.26.36-.32.91-.78 1.65-1.32 6.6503529-4.7685501 14.6471398-7.2940356 22.83-7.21 5.1818811-.0186411 10.3176892.9731948 15.12 2.92z"/><circle id="Oval" cx="22" cy="29" r="4"/><circle id="Oval" cx="36" cy="29" r="4"/></g><path id="Shape" d="m39 43c-.0004215.4388477-.0575615.8758006-.17 1.3-.87 3.25-4.94 5.7-9.83 5.7s-8.96-2.45-9.82-5.7c-.1206199-.4227579-.1812128-.8603729-.18-1.3-.0031362-.2820422.0236807-.5636203.08-.84.42-2.53 2.79-4.65 6.03-5.61h7.78c3.24.96 5.61 3.08 6.03 5.61.0563193.2763797.0831362.5579578.08.84z" fill="#cf976a"/><path id="Shape" d="m39 43c-.0004215.4388477-.0575615.8758006-.17 1.3-1.4064992.4725128-2.8765808.7287656-4.36.76-1.3348081.0402433-2.6522363-.3108391-3.79-1.01-.6799282-.4383035-1.2537984-1.0224213-1.68-1.71-.4279097.6829185-.9973994 1.2660487-1.67 1.71-1.93 1.26-4.67 1.34-8.15.25-.1206199-.4227579-.1812128-.8603729-.18-1.3-.0031362-.2820422.0236807-.5636203.08-.84 3.19 1.12 5.64 1.19 7.16.21 1.0729606-.7935333 1.7218593-2.0360267 1.76-3.37 0-.5522847.4477153-1 1-1s1 .4477153 1 1c.0457567 1.3394488.7014166 2.5844658 1.78 3.38 1.51.98 3.96.89 7.14-.22.0563193.2763797.0831362.5579578.08.84z" fill="#805333"/><path id="Shape" d="m33 36.169c0-1.198-1.791-2.169-4-2.169s-4 .971-4 2.169c0 .7 1.368 1.694 2.5 2.4.9149065.575942 2.0790935.575942 2.994 0 1.138-.706 2.506-1.699 2.506-2.4z" fill="#35495e"/><circle id="Oval" cx="49" cy="16" fill="#d1d4d1" r="5"/><circle id="Oval" cx="23" cy="29" fill="#35495e" r="2"/><circle id="Oval" cx="35" cy="29" fill="#35495e" r="2"/><circle id="Oval" cx="22" cy="28" fill="#ecf0f1" r="1"/><circle id="Oval" cx="34" cy="28" fill="#ecf0f1" r="1"/></g></g></svg>