<svg height="512" viewBox="0 0 52 58" width="512" xmlns="http://www.w3.org/2000/svg"><g id="Page-1" fill="none" fill-rule="evenodd"><g id="063---Turkey" fill-rule="nonzero" transform="translate(-1 -1)"><path id="Shape" d="m53 32.51c.0420787 9.8180609-5.3443728 18.855757-14 23.49l-4.56 1.89c-2.4110564.7376831-4.9186183 1.1117952-7.44 1.11-14.4942791-.1363309-26.13428068-11.9957018-26-26.49-.0499952-10.5706048 6.18695215-20.1598622 15.87-24.4.61-.26 1.23-.5 1.86-.72h.01c-.01-.01-.01-.03-.03-.04v-.01c0-.00552285-.0044772-.01-.01-.01-1.22-2.3-5.15-3.33-5.15-3.33 3.83-1.63 8.28.78 8.28.78-.1083413-1.63155581-1.1083841-3.07007897-2.6-3.74 0 0 14.23-1.18 21.77 9.05l-.04.07c7.5423605 4.927504 12.0746054 13.3407659 12.04 22.35z" fill="#cb8252"/><path id="Shape" d="m13.053 23.053c-.4043959-.0000863-.7689341-.2437275-.923678-.6173454-.1547439-.373618-.0692299-.8036603.216678-1.0896546 2.3158317-2.3032642 5.7898343-2.9873342 8.806-1.734.5141771.2018601.7673601.7823229.5655 1.2965s-.7823229.7673601-1.2965.5655c-2.2764834-.9540437-4.9032701-.4469055-6.661 1.286-.1874927.1875494-.4418052.2929434-.707.293z" fill="#805333"/><circle id="Oval" cx="18" cy="27" fill="#ecf0f1" r="4"/><path id="Shape" d="m40.947 23.053c-.2651948-.0000566-.5195073-.1054506-.707-.293-1.7566817-1.734896-4.3847486-2.2422813-6.661-1.286-.5141771.2018601-1.0946399-.0513229-1.2965-.5655s.0513229-1.0946399.5655-1.2965c3.0161657-1.2533342 6.4901683-.5692642 8.806 1.734.2859079.2859943.3714219.7160366.216678 1.0896546-.1547439.3736179-.5192821.6172591-.923678.6173454z" fill="#805333"/><circle id="Oval" cx="36" cy="27" fill="#ecf0f1" r="4"/><path id="Shape" d="m37.837 51.592c-3.293 1.73-5.609 3.408-10.837 3.408-2.4001528.0394027-4.7806878-.4380685-6.98-1.4-4.27-1.95-8.84-6.27-7.9-11.41 1.093-5.932 10.55-4.282 11.671-.53l11.209-.66z" fill="#547580"/><path id="Shape" d="m18.56 11.34c-.1742459.3304836-.5163995.5380824-.89.54-.1609859-.0006725-.3192006-.0419459-.46-.12-.4886457-.2569176-.6766488-.8612131-.42-1.35.4111082-.64999183.4601833-1.46539341.13-2.16-.0210635-.0449776-.0378054-.09185496-.05-.14.61-.26 1.23-.5 1.86-.72.6003563 1.26369749.5367092 2.742556-.17 3.95z" fill="#a56a43"/><path id="Shape" d="m34 43.15v13.35c0 1.3807119 1.1192881 2.5 2.5 2.5s2.5-1.1192881 2.5-2.5v-15.5c0-9-12-9-12-9z" fill="#e64c3c"/><path id="Shape" d="m35 40c0 2.157-1.907 4.83-3.858 7-1 1.113-2.014 2.095-2.787 2.807-.7656739.7052726-1.9443261.7052726-2.71 0-.773-.712-1.786-1.694-2.787-2.807-1.951-2.17-3.858-4.843-3.858-7 0-4.418278 3.581722-8 8-8s8 3.581722 8 8z" fill="#f0c419"/><circle id="Oval" cx="19" cy="27" fill="#35495e" r="2"/><circle id="Oval" cx="35" cy="27" fill="#35495e" r="2"/><circle id="Oval" cx="18" cy="26" fill="#ecf0f1" r="1"/><circle id="Oval" cx="34" cy="26" fill="#ecf0f1" r="1"/><ellipse id="Oval" cx="27" cy="35" fill="#f3d55b" rx="4" ry="2"/></g></g></svg>