<svg height="512" viewBox="0 0 58 58" width="512" xmlns="http://www.w3.org/2000/svg"><g id="Page-1" fill="none" fill-rule="evenodd"><g id="071---Happy-Pudding" fill-rule="nonzero"><path id="Shape" d="m23 12.74h-4.12c-2.02-4.63-5.88-1.74-5.88-1.74-2.74-6.52-8.32-2-8.32-2 .58-4.71-3.51-5.78-4.48-5.97l-.2-.03.2.03c2.7180549.33007367 5.40355172-.8274022 7.03-3.03 0 0 2.74 6.52 7.79 2.09 0 0 .98 2.91 4.98 1.91.1048744 1.90698126.9736015 3.69129614 2.41 4.95z" fill="#26b99a"/><path id="Shape" d="m35 12.74h4.12c2.02-4.63 5.88-1.74 5.88-1.74 2.74-6.52 8.32-2 8.32-2-.58-4.71 3.51-5.78 4.48-5.97l.2-.03-.2.03c-2.7180549.33007367-5.4035517-.8274022-7.03-3.03 0 0-2.74 6.52-7.79 2.09 0 0-.98 2.91-4.98 1.91-.1048744 1.90698126-.9736015 3.69129614-2.41 4.95z" fill="#26b99a"/><path id="Shape" d="m50.82 21.6c-.0662771.2464628-.1602069.4846421-.28.71-.5801468 1.1602163-1.7266158 1.9308561-3.02 2.03-2.46.13-4.45-2.37-6.9-2.64-2.28-.26-4.33 1.45-5.97 3.2s-2.89 4.1-5.65 4.1-4.02-2.36-5.65-4.1-3.69-3.46-5.97-3.2c-2.45.27-4.44 2.77-6.9 2.64-1.29338421-.0991439-2.43985319-.8697837-3.02-2.03-.11979307-.2253579-.21372295-.4635372-.28-.71 3.2846083-4.7480422 8.2115918-8.1110736 13.83-9.44h15.98c5.6184082 1.3289264 10.5453917 4.6919578 13.83 9.44z" fill="#ecf0f1"/><path id="Shape" d="m58 49s-2 9-29 9-29-9-29-9c0-13.38 3.21-21.94 7.18-27.4.06627705.2464628.16020693.4846421.28.71.58014681 1.1602163 1.72661579 1.9308561 3.02 2.03 2.46.13 4.45-2.37 6.9-2.64 2.28-.26 4.33 1.45 5.97 3.2s2.89 4.1 5.65 4.1 4.02-2.36 5.65-4.1 3.69-3.46 5.97-3.2c2.45.27 4.44 2.77 6.9 2.64 1.2933842-.0991439 2.4398532-.8697837 3.02-2.03.1197931-.2253579.2137229-.4635372.28-.71 3.97 5.46 7.18 14.02 7.18 27.4z" fill="#a56a43"/><path id="Shape" d="m23.241 34.759c-.2651948-.0000566-.5195073-.1054506-.707-.293-1.3442094-1.3287733-3.3179114-1.7956706-5.115-1.21-.5246705.1747981-1.0917019-.1088295-1.2665-.6335s.1088295-1.0917019.6335-1.2665c2.5153127-.8373941 5.2878609-.1820012 7.162 1.693.2859079.2859943.3714219.7160366.216678 1.0896546-.1547439.3736179-.5192821.6172591-.923678.6173454z" fill="#805333"/><circle id="Oval" cx="19" cy="38" fill="#ecf0f1" r="4"/><path id="Shape" d="m34.759 34.759c-.4043959-.0000863-.7689341-.2437275-.923678-.6173454-.1547439-.373618-.0692299-.8036603.216678-1.0896546 1.8741391-1.8750012 4.6466873-2.5303941 7.162-1.693.5246705.1747981.8082981.7418295.6335 1.2665-.1747982.5246705-.7418295.8082981-1.2665.6335-1.797069-.5861443-3.7710204-.119188-5.115 1.21-.1879828.1864497-.442235.2907399-.707.29z" fill="#805333"/><circle id="Oval" cx="39" cy="38" fill="#ecf0f1" r="4"/><path id="Shape" d="m21.9 44c-.2562059-.0001631-.5003376.1088761-.6712023.2997864s-.2522651.4455941-.2237977.7002136c.5316272 4.0081995 3.949698 7.0028491 7.993 7.0028491s7.4613728-2.9946496 7.993-7.0028491c.0285695-.2554884-.0534826-.5109989-.2254605-.7020855-.171978-.1910866-.4174637-.2995069-.6745395-.2979145z" fill="#802d40"/><path id="Shape" d="m34.01 50.25v.01c-2.9371918 2.3235572-7.0874519 2.3194152-10.02-.01 1.2419953-1.4714597 3.0850776-2.2991913 5.01-2.25 1.9249224-.0491913 3.7680047.7785403 5.01 2.25z" fill="#ff5364"/><path id="Shape" d="m29 9.962c1.0575981.01095358 2.0756088-.40172611 2.8270445-1.14602318.7514357-.74429708 1.1738137-1.75832233 1.1729555-2.81597682 0-2.209139-1.790861-4-4-4s-4 1.790861-4 4c-.0008582 1.05765449.4215198 2.07167974 1.1729555 2.81597682.7514357.74429707 1.7694464 1.15697676 2.8270445 1.14602318z" fill="#c03a2b"/><circle id="Oval" cx="25" cy="12" fill="#e64c3c" r="4"/><circle id="Oval" cx="33" cy="12" fill="#e64c3c" r="4"/><circle id="Oval" cx="20" cy="38" fill="#35495e" r="2"/><circle id="Oval" cx="38" cy="38" fill="#35495e" r="2"/><g fill="#ecf0f1"><circle id="Oval" cx="19" cy="37" r="1"/><circle id="Oval" cx="37" cy="37" r="1"/></g></g></g></svg>