<svg height="512" viewBox="0 0 58 58" width="512" xmlns="http://www.w3.org/2000/svg"><g id="Page-1" fill="none" fill-rule="evenodd"><g id="077---Happy-Reef" fill-rule="nonzero"><path id="Shape" d="m13.05 6.35h-.01c-.2532035.0166065-.5073211.01326285-.76-.01h-.01c-1.615531-.15598589-3.216195.4184741-4.36386045 1.56613955s-1.72212544 2.74832945-1.56613955 4.36386045v.01c.22134955 2.3054214-1.04338806 4.4976333-3.15 5.46h-.01c-1.4757688.673917-2.57348435 1.9716609-2.99331235 3.5387608s-.11790069 3.2398098.82331235 4.5612392l.01.01c1.3400203 1.8862316 1.3400203 4.4137684 0 6.3l-.01.01c-.94121304 1.3214294-1.24314035 2.9941393-.82331235 4.5612392s1.51754355 2.8648438 2.99331235 3.5387608h.01c2.10661194.9623667 3.37134955 3.1545786 3.15 5.46v.01c-.15598589 1.615531.4184741 3.216195 1.56613955 4.3638605 1.14766545 1.1476654 2.74832945 1.7221254 4.36386045 1.5661395h.01c2.3054214-.2213495 4.4976333 1.0433881 5.46 3.15v.01c.673917 1.4757688 1.9716609 2.5734844 3.5387608 2.9933124s3.2398098.1179006 4.5612392-.8233124l.01-.01c1.8862316-1.3400203 4.4137684-1.3400203 6.3 0l.01.01c1.3214294.941213 2.9941393 1.2431404 4.5612392.8233124s2.8648438-1.5175436 3.5387608-2.9933124v-.01c.9623667-2.1066119 3.1545786-3.3713495 5.46-3.15h.01c1.615531.1559859 3.216195-.4184741 4.3638605-1.5661395 1.1476654-1.1476655 1.7221254-2.7483295 1.5661395-4.3638605v-.01c-.2213495-2.3054214 1.0433881-4.4976333 3.15-5.46h.01c1.4757688-.673917 2.5734844-1.9716609 2.9933124-3.5387608s.1179006-3.2398098-.8233124-4.5612392l-.01-.01c-1.3400203-1.8862316-1.3400203-4.4137684 0-6.3l.01-.01c.941213-1.3214294 1.2431404-2.9941393.8233124-4.5612392s-1.5175436-2.8648438-2.9933124-3.5387608h-.01c-2.1066119-.9623667-3.3713495-3.1545786-3.15-5.46v-.01c.1559859-1.615531-.4184741-3.216195-1.5661395-4.36386045-1.1476655-1.14766545-2.7483295-1.72212544-4.3638605-1.56613955h-.01c-.2526789.02326285-.5067965.0266065-.76.01z" fill="#26b99a"/><path id="Shape" d="m43.91 14.35c.8477029-2.0044217 1.220741-4.1776249 1.09-6.35 0-.59-.02-1.14-.04-1.65h-.01c-.38-6.35-2.95-6.35-2.95-6.35-1.3398966.01108681-2.665947.27222717-3.91.77-2.5743138 1.0853867-4.8736419 2.7321566-6.73 4.82h-4.72c-1.8563581-2.0878434-4.1556862-3.7346133-6.73-4.82-1.244053-.49777283-2.5701034-.75891319-3.91-.77 0 0-2.57 0-2.95 6.35h-.01c-.02.51-.04 1.06-.04 1.65-.130741 2.1723751.2422971 4.3455783 1.09 6.35l11.91-1.35h7z" fill="#c03a2b"/><circle id="Oval" cx="7" cy="23" fill="#f3d55b" r="2"/><circle id="Oval" cx="7" cy="34" fill="#e64c3c" r="2"/><circle id="Oval" cx="19" cy="37.5" fill="#ecf0f1" r="3.5"/><circle id="Oval" cx="39" cy="37.5" fill="#ecf0f1" r="3.5"/><path id="Shape" d="m21.9 43c-.2562059-.0001631-.5003376.1088761-.6712023.2997864s-.2522651.4455941-.2237977.7002136c.5316272 4.0081995 3.949698 7.0028491 7.993 7.0028491s7.4613728-2.9946496 7.993-7.0028491c.0285695-.2554884-.0534826-.5109989-.2254605-.7020855-.171978-.1910866-.4174637-.2995069-.6745395-.2979145z" fill="#802d40"/><circle id="Oval" cx="51" cy="23" fill="#f3d55b" r="2"/><circle id="Oval" cx="51" cy="34" fill="#e64c3c" r="2"/><path id="Shape" d="m19 30c-.7525271-.0004635-1.5001774.1207679-2.214.359-.3394023.1130745-.5926985.3986287-.6644742.749097-.0717757.3504684.0488734.7126063.3165.9500001.2676266.2373937.6415719.3139775.9809742.2009029 1.7967514-.5862096 3.77045-.1192219 5.114 1.21.2510745.2599566.6228779.3642126.9725073.2726972.3496295-.0915155.6226744-.3645604.7141899-.7141899.0915154-.3496294-.0127406-.7214328-.2726972-.9725073-1.3082866-1.3183221-3.0896966-2.0583256-4.947-2.055z" fill="#14a085"/><path id="Shape" d="m41.214 30.359c-2.5149511-.8384392-5.2877695-.1828909-7.161 1.693-.2599566.2510745-.3642126.6228779-.2726972.9725073.0915155.3496295.3645604.6226744.7141899.7141899.3496294.0915154.7214328-.0127406.9725073-.2726972 1.3434349-1.3294294 3.3172584-1.7964467 5.114-1.21.5246705.1747981 1.0917018-.1088295 1.2665-.6335.1747981-.5246705-.1088295-1.0917019-.6335-1.2665z" fill="#14a085"/><path id="Shape" d="m15 43h-1v-1c0-.5522847-.4477153-1-1-1s-1 .4477153-1 1v1h-1c-.5522847 0-1 .4477153-1 1s.4477153 1 1 1h1v1c0 .5522847.4477153 1 1 1s1-.4477153 1-1v-1h1c.5522847 0 1-.4477153 1-1s-.4477153-1-1-1z" fill="#f3d55b"/><path id="Shape" d="m47 43h-1v-1c0-.5522847-.4477153-1-1-1s-1 .4477153-1 1v1h-1c-.5522847 0-1 .4477153-1 1s.4477153 1 1 1h1v1c0 .5522847.4477153 1 1 1s1-.4477153 1-1v-1h1c.5522847 0 1-.4477153 1-1s-.4477153-1-1-1z" fill="#f3d55b"/><g fill="#e64c3c"><path id="Shape" d="m24.45 12.07c-5.14.25-8.36 1.25-10.36 2.28-2.51 1.3-3.09 2.65-3.09 2.65s.95 2.68 6.49 2.12c-1.83 5.8 1.22 7.15 1.22 7.15s5.06-1.24 7.01-12.49z"/><path id="Shape" d="m33.55 12.07c5.14.25 8.36 1.25 10.36 2.28 2.51 1.3 3.09 2.65 3.09 2.65s-.95 2.68-6.49 2.12c1.83 5.8-1.22 7.15-1.22 7.15s-5.06-1.24-7.01-12.49z"/><circle id="Oval" cx="29" cy="10" r="5"/></g><path id="Shape" d="m34.01 49.25v.01c-2.9371918 2.3235572-7.0874519 2.3194152-10.02-.01 1.2419953-1.4714597 3.0850776-2.2991913 5.01-2.25 1.9249224-.0491913 3.7680047.7785403 5.01 2.25z" fill="#ff5364"/><circle id="Oval" cx="20" cy="38" fill="#35495e" r="2"/><circle id="Oval" cx="38" cy="38" fill="#35495e" r="2"/><circle id="Oval" cx="19" cy="37" fill="#ecf0f1" r="1"/><circle id="Oval" cx="37" cy="37" fill="#ecf0f1" r="1"/></g></g></svg>