<svg height="512" viewBox="0 0 58 58" width="512" xmlns="http://www.w3.org/2000/svg"><g id="Page-1" fill="none" fill-rule="evenodd"><g id="082---Happy-Angel-Girl" fill-rule="nonzero"><path id="Shape" d="m54.15 30.01c2.132547.1390729 3.7791037 1.9299014 3.7389904 4.0666018-.0401133 2.1367005-1.7527262 3.8644657-3.8889904 3.9233982-.4424708-.0014874-.881678-.0758147-1.3-.22h-47.4c-1.22177984.4232333-2.57286741.2286554-3.62556871-.5221391s-1.67668707-1.9648538-1.67443129-3.2578609c-.0028883-2.1507115 1.70055658-3.9160998 3.85-3.99z" fill="#f9c795"/><path id="Shape" d="m51.845 40v2.45c.357 4.133 1.8 8.075 5.586 9.98.2811264.130595.4836972.3867309.5460051.6903834.0623079.3036524-.0230252.6188647-.2300051.8496166-2.033 2.2-7.881 6.71-18.827 1.88h-19.84c-10.946 4.83-16.794.321-18.827-1.88-.2069799-.2307519-.29231302-.5459642-.23000511-.8496166.06230791-.3036525.26487871-.5597884.54600511-.6903834 3.782-1.905 5.229-5.847 5.586-9.98v-2.45z" fill="#f0c419"/><path id="Shape" d="m41.005 22.287c9.917.063 11.995 5.888 11.995 11.713.00191 1.2660211-.0984161 2.5301292-.3 3.78-1.859041 11.6470917-11.9054768 20.2171439-23.7 20.2171439s-21.84095902-8.5700522-23.7-20.2171439c-.20158391-1.2498708-.30190995-2.5139789-.3-3.78 0-5.286 1.711-10.572 9.437-11.552z" fill="#fdd7ad"/><path id="Shape" d="m23.241 35.759c-.2651948-.0000566-.5195073-.1054506-.707-.293-1.3438646-1.3293955-3.3179409-1.7963813-5.115-1.21-.3394023.1130746-.7133476.0364908-.9809742-.2009029-.2676266-.2373938-.3882757-.5995317-.3165-.9500001.0717757-.3504683.3250719-.6360225.6644742-.749097 2.5153127-.8373941 5.2878609-.1820012 7.162 1.693.2859079.2859943.3714219.7160366.216678 1.0896546-.1547439.3736179-.5192821.6172591-.923678.6173454z" fill="#f0c419"/><circle id="Oval" cx="19" cy="39.5" fill="#ecf0f1" r="3.5"/><path id="Shape" d="m34.759 35.759c-.4043959-.0000863-.7689341-.2437275-.923678-.6173454-.1547439-.373618-.0692299-.8036603.216678-1.0896546 1.8741391-1.8750012 4.6466873-2.5303941 7.162-1.693.5246705.1747981.8082981.7418295.6335 1.2665s-.7418295.8082981-1.2665.6335c-1.7970591-.5863813-3.7711354-.1193955-5.115 1.21-.1879828.1864497-.442235.2907399-.707.29z" fill="#f0c419"/><circle id="Oval" cx="39" cy="39.5" fill="#ecf0f1" r="3.5"/><path id="Shape" d="m21.9 45c-.2562059-.0001631-.5003376.1088761-.6712023.2997864s-.2522651.4455941-.2237977.7002136c.5316272 4.0081995 3.949698 7.0028491 7.993 7.0028491s7.4613728-2.9946496 7.993-7.0028491c.0285695-.2554884-.0534826-.5109989-.2254605-.7020855-.171978-.1910866-.4174637-.2995069-.6745395-.2979145z" fill="#802d40"/><path id="Shape" d="m49.89 16.93c.8275933.9321313 1.5363401 1.9633412 2.11 3.07 1.5122612 3.1148589 2.2498394 6.5488857 2.15 10.01-.0033345.6660276-.0534579 1.3309981-.15 1.99 0 0-.4-.02-1.1-.09-3.77-.37-16.32-2.01-23.9-7.91-7.58 5.9-20.13 7.54-23.9 7.91-.7.07-1.1.09-1.1.09-.09654208-.6590019-.14666548-1.3239724-.15-1.99-.10055292-3.4611796.63706138-6.8953745 2.15-10.01.5736599-1.1066588 1.28240671-2.1378687 2.11-3.07l4.13-3.66c10.0686382-7.0265573 23.4513618-7.0265573 33.52 0z" fill="#f0c419"/><path id="Shape" d="m29 0c-16.02 0-29 4.48-29 10s12.98 10 29 10 29-4.48 29-10-12.98-10-29-10zm0 16c-11.05 0-20-2.69-20-6s8.95-6 20-6 20 2.69 20 6-8.95 6-20 6z" fill="#f3d55b"/><path id="Shape" d="m34.01 51.25v.01c-2.9371918 2.3235572-7.0874519 2.3194152-10.02-.01 1.2419953-1.4714597 3.0850776-2.2991913 5.01-2.25 1.9249224-.0491913 3.7680047.7785403 5.01 2.25z" fill="#ff5364"/><circle id="Oval" cx="20" cy="40" fill="#35495e" r="2"/><circle id="Oval" cx="38" cy="40" fill="#35495e" r="2"/><g fill="#ecf0f1"><circle id="Oval" cx="19" cy="39" r="1"/><circle id="Oval" cx="37" cy="39" r="1"/></g></g></g></svg>