<svg height="512" viewBox="0 0 58 58" width="512" xmlns="http://www.w3.org/2000/svg"><g id="Page-1" fill="none" fill-rule="evenodd"><g id="091---Polar-Bear" fill-rule="nonzero"><path id="Shape" d="m55.5 32.91v-.01c-.955101-3.7313211-2.3939624-7.3217509-4.28-10.68l-8.81-10.42c-1.981081-1.6015374-4.1505024-2.95490713-6.46-4.03h-13.9c-2.3094976 1.07509287-4.478919 2.4284626-6.46 4.03l-8.81 10.42c-1.88603763 3.3582491-3.32489905 6.9486789-4.28 10.68v.01z" fill="#e64c3c"/><path id="Shape" d="m54.76 45.89c1.9662537-1.7647986 3.1349094-4.2499955 3.24-6.89 0-8.28-12.98-15-29-15s-29 6.72-29 15c.10509056 2.6400045 1.27374627 5.1252014 3.24 6.89z" fill="#ecf0f1"/><ellipse id="Oval" cx="29" cy="44" fill="#cb8252" rx="26" ry="14"/><circle id="Oval" cx="29" cy="7" fill="#ecf0f1" r="7"/><path id="Shape" d="m9.556 22.986c-3.72501707-.2363664-6.60934817-3.3538726-6.556-7.086.10070818-3.7682619 3.13173809-6.79929182 6.9-6.9 3.7317645-.05337683 6.8491239 2.8303786 7.086 6.555.0119142.2834655-.0971414.5586492-.3.757l-6.374 6.374c-.1981142.202594-.47287743.3116271-.756.3z" fill="#cb8252"/><path id="Shape" d="m12.946 15.434c-.1650066-.8492491-.6872189-1.586543-1.4335826-2.024027-.7463638-.437484-1.64480765-.5329131-2.4664174-.261973-.90406254.2875987-1.61240134.9959375-1.9 1.9-.2709401.8216098-.17551098 1.7200536.26197302 2.4664174.43748399.7463637 1.17477793 1.268576 2.02402698 1.4335826.3278378.0611332.6647062-.0436703.9-.28l2.332-2.332c.2376994-.2353376.343321-.5731771.282-.902z" fill="#fb7b76"/><path id="Shape" d="m48.444 22.986c3.7250171-.2363664 6.6093482-3.3538726 6.556-7.086-.1007082-3.7682619-3.1317381-6.79929182-6.9-6.9-3.7317645-.05337683-6.8491239 2.8303786-7.086 6.555-.0119142.2834655.0971414.5586492.3.757l6.374 6.374c.1981142.202594.4728774.3116271.756.3z" fill="#cb8252"/><circle id="Oval" cx="19.25" cy="37.5" fill="#ecf0f1" r="3.75"/><circle id="Oval" cx="38.75" cy="37.5" fill="#ecf0f1" r="3.75"/><path id="Shape" d="m32.95 42.4v.01c4.13.85 7.05 3.04 7.05 5.59 0 3.31-4.92 6-11 6s-11-2.69-11-6c0-2.55 2.92-4.74 7.05-5.6z" fill="#cf976a"/><path id="Shape" d="m33 42.169c0-1.198-1.791-2.169-4-2.169s-4 .971-4 2.169c0 .7 1.368 1.694 2.5 2.4.9149065.575942 2.0790935.575942 2.994 0 1.138-.706 2.506-1.699 2.506-2.4z" fill="#35495e"/><path id="Shape" d="m30 51h-2c-.5522847 0-1-.4477153-1-1s.4477153-1 1-1h2c.5522847 0 1 .4477153 1 1s-.4477153 1-1 1z" fill="#a56a43"/><path id="Shape" d="m45.054 15.434c.1650066-.8492491.6872189-1.586543 1.4335826-2.024027.7463638-.437484 1.6448076-.5329131 2.4664174-.261973.9040625.2875987 1.6124013.9959375 1.9 1.9.2709401.8216098.175511 1.7200536-.261973 2.4664174-.437484.7463637-1.1747779 1.268576-2.024027 1.4335826-.3278378.0611332-.6647062-.0436703-.9-.28l-2.332-2.332c-.2376994-.2353376-.343321-.5731771-.282-.902z" fill="#fb7b76"/><circle id="Oval" cx="20" cy="38" fill="#35495e" r="2"/><circle id="Oval" cx="38" cy="38" fill="#35495e" r="2"/><g fill="#ecf0f1"><circle id="Oval" cx="19" cy="37" r="1"/><circle id="Oval" cx="37" cy="37" r="1"/></g></g></g></svg>