<svg height="512" viewBox="0 0 58 58" width="512" xmlns="http://www.w3.org/2000/svg"><g id="Page-1" fill="none" fill-rule="evenodd"><g id="005---Happy-Reindeer" fill-rule="nonzero"><path id="Shape" d="m17.9 15.17c-.8369997-1.4167373-1.5208505-2.9185273-2.04-4.48l-.27-.28c-1.0001424-.86682728-2.2672739-1.36450288-3.59-1.41-1.1045695 0-2-.8954305-2-2s.8954305-2 2-2c.8388389.00191945 1.6733924.11969918 2.48.35-.34-1.77-.46-3.02-.47-3.17-.0501977-1.06971113.7510984-1.9891474 1.8176326-2.08561783 1.0665341-.09647043 2.0198052.66426128 2.1623674 1.72561783.04.39.1.88.18 1.44.5949798-.17116456 1.2108905-.25867099 1.83-.26 1.1045695 0 2 .8954305 2 2s-.8954305 2-2 2c-.343383-.0294238-.6884301.03268468-1 .18v.07c.5503633 2.35451887 1.5008328 4.5970858 2.81 6.63z" fill="#cbb292"/><path id="Shape" d="m36.19 13.88c1.3091672-2.0329142 2.2596367-4.27548113 2.81-6.63v-.07c-.3115699-.14731532-.656617-.2094238-1-.18-1.1045695 0-2-.8954305-2-2s.8954305-2 2-2c.6191095.00132901 1.2350202.08883544 1.83.26.08-.56.14-1.05.18-1.44.1425622-1.06135655 1.0958333-1.82208826 2.1623674-1.72561783 1.0665342.09647043 1.8678303 1.0159067 1.8176326 2.08561783-.01.15-.13 1.4-.47 3.17.8066076-.23030082 1.6411611-.34808055 2.48-.35 1.1045695.00000002 2 .89543052 2 2s-.8954305 1.99999998-2 2c-1.3227261.04549712-2.5898576.54317272-3.59 1.41l-.27.28c-.5191495 1.5614727-1.2030003 3.0632627-2.04 4.48z" fill="#cbb292"/><path id="Shape" d="m56.73 23.84c-1.0278288 1.5552647-2.9134186 2.3087033-4.73 1.89h-.01c1.3012864 2.5638539 1.9893613 5.3948884 2.01 8.27 0 10.48-9.13 19.16-21.07 20.74h-7.86c-11.94-1.58-21.07-10.26-21.07-20.74.00062181-2.0628075.35927802-4.1098547 1.06-6.05.27111928-.7554226.58838332-1.493479.95-2.21-1.81778681.4047097-3.69729385-.350272-4.73-1.9-1.51-2.22-1.92-6.35.17-8.35 1.49-1.43 3.92-1.24 5.78-.81 2.26932512.6158545 4.4504095 1.5198787 6.49 2.69 4.5673215-2.8952952 9.8724729-4.4125407 15.28-4.37 5.4093344-.0454741 10.7162056 1.4757363 15.28 4.38l.01-.01c2.0395905-1.1701213 4.2206749-2.0741455 6.49-2.69 1.86-.43 4.29-.62 5.78.81 2.09 2 1.68 6.13.17 8.35z" fill="#cb8252"/><path id="Shape" d="m34 34c0 1.66-2.24 3-5 3-2.62 0-4.76-1.2-4.97-2.74-.0198359-.0852471-.0299007-.1724756-.03-.26 0-1.66 2.24-3 5-3 .9282445-.0059344 1.8498551.1567028 2.72.48 1.37.54 2.28 1.46 2.28 2.52z" fill="#c03a2b"/><path id="Shape" d="m31.75 31.75c0 1.66-2.24 3-5 3-.929371.0086689-1.8520798-.1575544-2.72-.49-.0198359-.0852471-.0299007-.1724756-.03-.26 0-1.66 2.24-3 5-3 .9282445-.0059344 1.8498551.1567028 2.72.48.0198503.088631.0299106.1791733.03.27z" fill="#e64c3c"/><path id="Shape" d="m18 30c-.0822727.0003241-.1642562-.0097558-.244-.03-.5357071-.1342174-.8611901-.677286-.727-1.213.426-1.7 2.468-4.678 7.166-3.737.3606322.0593016.6601885.3106176.7812685.6554537s.0443954.728259-.2 1-.6175689.388511-.9732685.3045463c-4.02-.8-4.8 2.138-4.834 2.263-.1113683.4445697-.5106935.7565296-.969.757z" fill="#35495e"/><path id="Shape" d="m40 30c-.4555344-.0005676-.8531167-.3089303-.967-.75-.087-.32-.94-3.046-4.836-2.27-.3556996.0839647-.7288731-.0328053-.9732685-.3045463s-.32108-.6551639-.2-1 .4206363-.5961521.7812685-.6554537c4.7-.941 6.74 2.034 7.166 3.737.1341901.535714-.1912929 1.0787826-.727 1.213-.0797438.0202442-.1617273.0303241-.244.03z" fill="#35495e"/><path id="Shape" d="m15 27c-.3845434.0001443-.7351047-.2202266-.9016819-.5668181-.1665772-.3465916-.1196578-.7579978.1206819-1.0581819l4-5c.345178-.4313344.9746656-.501178 1.406-.156s.501178.9746656.156 1.406l-4 5c-.1898615.2371369-.4772217.375114-.781.375z" fill="#805333"/><path id="Shape" d="m43 27c-.3037783.000114-.5911385-.1378631-.781-.375l-4-5c-.345178-.4313344-.2753344-1.060822.156-1.406s1.060822-.2753344 1.406.156l4 5c.2403397.3001841.2872591.7115903.1206819 1.0581819-.1665772.3465915-.5171385.5669624-.9016819.5668181z" fill="#805333"/><path id="Shape" d="m25 50.44c-5.22-1.49-9-5.82-9-10.94.0000907-1.7489594.4439388-3.469301 1.29-5 2.4378015 4.1278109 6.9174415 6.6143745 11.71 6.5 4.7925585.1143745 9.2721985-2.3721891 11.71-6.5.8460612 1.530699 1.2899093 3.2510406 1.29 5 0 5.12-3.78 9.45-9 10.94z" fill="#802d40"/><path id="Shape" d="m25 44h8v10c0 2.209139-1.790861 4-4 4s-4-1.790861-4-4z" fill="#ff5364"/><path id="Shape" d="m29 51c-.5522847 0-1-.4477153-1-1v-5c0-.5522847.4477153-1 1-1s1 .4477153 1 1v5c0 .5522847-.4477153 1-1 1z" fill="#df4d60"/><path id="Shape" d="m10.71 27.78c-.1864103.1918336-.4425137.3000725-.71.3000725-.26748634 0-.52358971-.1082389-.71-.3000725l-1.14-1.14c-.80069494.8507021-1.9218605 1.3260183-3.09 1.31.27111928-.7554226.58838332-1.493479.95-2.21.46148153-.2009823.83697127-.5587603 1.06-1.01.01109244-.0182422.01792865-.0387508.02-.06.08567225-.1456831.15604668-.2998366.21-.46.37808873-1.2250948.30356438-2.5452405-.21-3.72-.22659951-.4999117-.00790982-1.0890349.49-1.32.5026655-.2297331 1.09653019-.0109409 1.33.49.72457411 1.6266259.82774913 3.4624296.29 5.16 0 .01-.01.02-.01.03l1.52 1.52c.3877236.3900375.3877236 1.0199625 0 1.41z" fill="#a56a43"/><path id="Shape" d="m52.93 27.92c-1.1603589.0061716-2.2715677-.4679925-3.07-1.31l-1.15 1.15c-.3943361.3867403-1.0256639.3867403-1.42 0-.3877236-.3900375-.3877236-1.0199625 0-1.41l1.53-1.53c-.01 0-.01-.01-.01-.02-.5377491-1.6975704-.4345741-3.5333741.29-5.16.2291982-.5025791.8224209-.7241982 1.325-.495s.7241982.8224209.495 1.325c-.5135644 1.1747595-.5880887 2.4949052-.21 3.72.1733325.6797205.6434308 1.2453075 1.28 1.54.3624548.7079229.6765079 1.4395999.94 2.19z" fill="#a56a43"/><path id="Shape" d="m36.59 38.83-1.4 5.42c-.1113578.4397784-.5063449.7483621-.96.75h-10.46c-.4536551-.0016379-.8486422-.3102216-.96-.75l-1.4-5.42c4.646411 2.8932754 10.533589 2.8932754 15.18 0z" fill="#ecf0f1"/></g></g></svg>