<svg height="512" viewBox="0 0 58 58" width="512" xmlns="http://www.w3.org/2000/svg"><g id="Page-1" fill="none" fill-rule="evenodd"><g id="096---Christmas-Poo-Love" fill-rule="nonzero"><path id="Shape" d="m42.85 21.2c1.98315.6786086 3.8412571 1.678608 5.5 2.96l5.92-2.99c-2.21-8.46-9.73-21.17-25.27-21.17-15.63 0-19.08 13.53-19.81 18.33z" fill="#e64c3c"/><path id="Shape" d="m39.958 15.789c-.4700412-.0011689-.8758224-.3295395-.975-.789-1.117-5.071-5.026-5.989-5.192-6.026-.5061912-.14255683-.8154785-.65281507-.7076859-1.16753125s.5958294-.8579977 1.1166859-.78546875c.216.045 5.328 1.179 6.732 7.553.0571258.2591249.0089222.5303303-.1339971.7538995-.1429192.2235692-.368835.3811701-.6280029.4381005-.0697107.0147936-.1407387.0224995-.212.023z" fill="#c03a2b"/><path id="Shape" d="m55 51c0 1.8565154-.7374979 3.6369928-2.0502525 4.9497475-1.3127547 1.3127546-3.0932321 2.0502525-4.9497475 2.0502525h-38c-2.83139264.0002043-5.38407882-1.7052934-6.46763352-4.3211476-1.08355469-2.6158543-.48456557-5.6268576 1.51763352-7.6288524.3110274-.3094666.64903278-.59058 1.01-.84v-.01c-.19114775-.6838563-.32165264-1.3832287-.39-2.09-.66-5.86 2.99-9.27 6.32-11.13v-.01c-.1565292-.688114-.2634706-1.386575-.32-2.09-.1907088-1.7334824-.0343351-3.4875874.46-5.16l27.09-3.98c2.6295714 2.2956971 3.7103106 5.8955695 2.78 9.26-.0320819.0885357-.0687993.1753223-.11.26.48.14 1.15.36 1.9.66 3.9 1.58 10.34 5.56 8.21 14.08-.0043079.0779654-.0177327.155158-.04.23.01 0 .01.01.02.01.5648922.3918952 1.0701238.8634447 1.5 1.4.9856975 1.2393188 1.5215916 2.7764887 1.52 4.36z" fill="#a56a43"/><g fill="#805333"><path id="Shape" d="m16.73 30.1c-1.6528037.4102366-3.2434987 1.0391161-4.73 1.87h-.01c-.1565292-.688114-.2634706-1.386575-.32-2.09 1.4755027-.7544783 3.0322246-1.338249 4.64-1.74.3501203-.0750258.7136705.0424345.9537049.3081347.2400344.2657001.3200859.639274.21.98-.1100859.3407259-.3935846.5968395-.7437049.6718653z"/><path id="Shape" d="m53.48 46.64c-.65 1.04-2.11 2.45-5.32 3.73-.1173256.048131-.2432005.0719451-.37.07-.480605.0011766-.8940741-.339705-.9845632-.8117159-.0904892-.4720108.1675978-.9416363.6145632-1.1182841 3.52-1.4 4.36-2.79 4.56-3.27.5648922.3918952 1.0701238.8634447 1.5 1.4z"/><path id="Shape" d="m43.79 30.92c-.0072084.0386128-.0207223.075776-.04.11-.4329929.8890011-.9920961 1.7108154-1.66 2.44-.1864941.2198967-.4617069.3446599-.75.34-.2432248.0004836-.4781337-.088497-.66-.25-.4105272-.3663102-.4506224-.9944675-.09-1.41.5222039-.5640166.9600715-1.2006088 1.3-1.89.48.14 1.15.36 1.9.66z"/></g><path id="Shape" d="m11.022 28c-2.29925543-.0018625-4.3008568-1.5715359-4.85081448-3.8040514-.54995767-2.2325156.49351215-4.5523115 2.52881448-5.6219486.437-.226 10.931-5.562 30.305-5.562 2.7614237 0 5 2.2385763 5 5s-2.2385763 5-5 5c-16.7 0-25.633 4.406-25.722 4.451-.7011225.3538426-1.4756487.5377969-2.261.537z" fill="#ecf0f1"/><circle id="Oval" cx="53" cy="26" fill="#ecf0f1" r="5"/><path id="Shape" d="m20.5 40c-2.3433786.1270679-4.3514506-1.657885-4.5-4 0-.5522847.4477153-1 1-1s1 .4477153 1 1c.1564335 1.2324358 1.2632846 2.1179166 2.5 2 1.2367154.1179166 2.3435665-.7675642 2.5-2 0-.5522847.4477153-1 1-1s1 .4477153 1 1c-.1485494 2.342115-2.1566214 4.1270679-4.5 4z" fill="#35495e"/><path id="Shape" d="m37.5 40c-2.3433786.1270679-4.3514506-1.657885-4.5-4 0-.5522847.4477153-1 1-1s1 .4477153 1 1c.1564335 1.2324358 1.2632846 2.1179166 2.5 2 1.2367154.1179166 2.3435665-.7675642 2.5-2 0-.5522847.4477153-1 1-1s1 .4477153 1 1c-.1485494 2.342115-2.1566214 4.1270679-4.5 4z" fill="#35495e"/><path id="Shape" d="m29 53c-2.243 0-4-1.317-4-3 .0174036-.7826827.384296-1.5164675 1-2-.615704-.4835325-.9825964-1.2173173-1-2 0-1.683 1.757-3 4-3 .7782474-.0072466 1.547627.16559 2.248.505.4940187.2485281.6930281.8504813.4445 1.3445s-.8504813.6930281-1.3445.4445c-.4211958-.1990392-.8821766-.2995795-1.348-.294-1.221 0-2 .592-2 1s.779 1 2 1c.5522847 0 1 .4477153 1 1s-.4477153 1-1 1c-1.221 0-2 .592-2 1s.779 1 2 1c.4671703.0061889.929587-.0943662 1.352-.294.4940187-.2485281 1.0959718-.0495187 1.3445.4445.2485281.4940187.0495187 1.0959718-.4445 1.3445-.7015858.3400127-1.4724043.512865-2.252.505z" fill="#802d40"/><path id="Shape" d="m7.314 46.535s-.5-3.279 2.107-5c2.228-1.469 5.084-.477 6.649 1.9 2.163 3.283.532 7.476-1.2 14.564-7.2-1.2-11.693-1.36-13.857-4.643-1.564-2.374-1.349-5.39.88-6.859 2.607-1.717 5.421.038 5.421.038z" fill="#ff5364"/><circle id="Oval" cx="4" cy="50" fill="#fb7b76" r="3"/></g></g></svg>