<svg height="512" viewBox="0 0 54 58" width="512" xmlns="http://www.w3.org/2000/svg"><g id="Page-1" fill="none" fill-rule="evenodd"><g id="008---Laughing-Snowman" fill-rule="nonzero"><path id="Shape" d="m11.95 13.79-1.95-8.79c0-2.76 7.61-5 17-5s17 2.24 17 5l-1.95 8.79z" fill="#35495e"/><path id="Shape" d="m43.09 9.12-1.04 4.67h-30.1l-1.04-4.67c5.2347644-1.47048294 10.6530033-2.1843839 16.09-2.12 5.4369967-.0643839 10.8552356.64951706 16.09 2.12z" fill="#e64c3c"/><path id="Shape" d="m6.09 29.13c-3.81-1.8-6.09-4.11-6.09-6.63 0-5.8 12.09-10.5 27-10.5s27 4.7 27 10.5c0 2.52-2.28 4.83-6.09 6.63z" fill="#2c3e50"/><path id="Shape" d="m49 36c-.0041389 9.2986842-5.8540519 17.5906047-14.6128634 20.7129064-8.7588114 3.1223017-18.5347995.4006322-24.42005155-6.7986284-5.88525208-7.1992607-6.6086757-17.3212212-1.80708505-25.284278l.06-.09c.63220312-1.0478349 1.35496466-2.0382859 2.16-2.96 3.24-1.54 9.47-2.58 16.62-2.58s13.38 1.04 16.62 2.58c.8050353.9217141 1.5277969 1.9121651 2.16 2.96l.06.09c2.0750471 3.4289471 3.1681602 7.3620788 3.16 11.37z" fill="#d1d4d1"/><path id="Shape" d="m49 36c-.0041389 9.2986842-5.8540519 17.5906047-14.6128634 20.7129064-8.7588114 3.1223017-18.5347995.4006322-24.42005155-6.7986284-5.88525208-7.1992607-6.6086757-17.3212212-1.80708505-25.284278l.06-.09c3.71-1.52 10.74-2.54 18.78-2.54s15.07 1.02 18.78 2.54l.06.09c2.0750471 3.4289471 3.1681602 7.3620788 3.16 11.37z" fill="#ecf0f1"/><path id="Shape" d="m16 32c-.0819433.0003256-.1635963-.009755-.243-.03-.257441-.0642346-.4788001-.2281489-.6153407-.4556541-.1365407-.2275053-.177068-.4999484-.1126593-.7573459.426-1.7 2.475-4.674 7.166-3.737.3606322.0593016.6601885.3106176.7812685.6554537s.0443954.728259-.2 1-.6175689.388511-.9732685.3045463c-4.02-.8-4.8 2.138-4.834 2.263-.1113683.4445697-.5106935.7565296-.969.757z" fill="#35495e"/><path id="Shape" d="m38 32c-.4559068-.0001121-.8540233-.3085702-.968-.75-.086-.32-.953-3.045-4.835-2.27-.3556996.0839647-.7288731-.0328053-.9732685-.3045463s-.32108-.6551639-.2-1 .4206363-.5961521.7812685-.6554537c4.694-.94 6.741 2.034 7.166 3.737.0644087.2573975.0238814.5298406-.1126593.7573459-.1365406.2275052-.3578997.3914195-.6153407.4556541-.0794037.020245-.1610567.0303256-.243.03z" fill="#35495e"/><path id="Shape" d="m13 29c-.3843629-.0002401-.7345727-.2207567-.9008985-.5672687-.1663258-.3465121-.1193284-.7576881.1208985-1.0577313l4-5c.345178-.4313343.9746656-.5011779 1.406-.156.4313343.345178.5011779.9746656.156 1.406l-4 5c-.1900804.237411-.4778711.375418-.782.375z" fill="#547580"/><path id="Shape" d="m41 29c-.3041289.000418-.5919196-.137589-.782-.375l-4-5c-.223291-.2790244-.2807626-.655978-.1507659-.9888658.1299968-.3328879.4277123-.5711366.781-.625.3532878-.0538635.7084749.0848414.9317659.3638658l4 5c.2402269.3000432.2872243.7112192.1208985 1.0577313-.1663258.346512-.5165356.5670286-.9008985.5672687z" fill="#547580"/><path id="Shape" d="m40 41.51c-.0788152 3.9119059-2.2046824 7.4955107-5.6 9.44-1.0588986.6540934-2.2030341 1.158859-3.4 1.5l.01.02c-3.8510016 1.0772743-7.9753161.5278477-11.41-1.52-3.3917175-1.9481426-5.5162528-5.5295021-5.6-9.44 0-.34.02-.67.05-1.01.0829628-.7570002.5902577-1.4004588 1.3069909-1.6578022s1.5174687-.0835336 2.0630091.4478022c1.9286279 1.8172988 4.3489842 3.027477 6.96 3.48l5.09.03c2.6694978-.4333697 5.1468649-1.659858 7.11-3.52.5491881-.5254965 1.348789-.6942608 2.0634981-.4355234.714709.2587374 1.2209756.900249 1.3065019 1.6555234.03.33.05.67.05 1.01z" fill="#802d40"/><path id="Shape" d="m31.274 39.61c.8480798-1.4745831.902817-3.275521.145856-4.7988873-.7569609-1.5233663-2.2253869-2.5674442-3.912856-2.7821127-.3790163-.0386682-.7609837-.0386682-1.14 0-1.6877283.2141951-3.1565272 1.2582118-3.913576 2.7817549s-.7020376 3.3247413.146576 4.7992451l2.4 4.264c.3963988.6961629 1.1358915 1.1260621 1.937 1.1260621s1.5406012-.4298992 1.937-1.1260621z" fill="#f29c1f"/><path id="Shape" d="m31 52.45.01.02c-3.8510016 1.0772743-7.9753161.5278477-11.41-1.52 1.237075-2.9960322 4.1586171-4.9505072 7.4-4.9505072s6.162925 1.954475 7.4 4.9505072c-1.0588986.6540934-2.2030341 1.158859-3.4 1.5z" fill="#ff5364"/></g></g></svg>