<svg height="512" viewBox="0 0 52 59" width="512" xmlns="http://www.w3.org/2000/svg"><g id="Page-1" fill="none" fill-rule="evenodd"><g id="012---Happy-Gingerbread-Man" fill-rule="nonzero" transform="translate(-1)"><path id="Shape" d="m17.007 50.982c-11.4752424-4.7770519-17.9642472-17.0081359-15.48538896-29.1883114 2.47885824-12.18017548 13.23214776-20.90218001 25.66169636-20.81422912 12.4295485.08795089 23.0583345 8.96125396 25.3645805 21.17528862 2.3062459 12.2140347-4.3551936 24.3520667-15.8968879 28.9662519z" fill="#cb8252"/><g fill="#ecf0f1"><path id="Shape" d="m43.34 41.49c-.5522847 0-1-.4477153-1-1-.005807-1.5816153 1.1389304-2.9328295 2.7-3.187.387544-.0608974.7224155-.303864.9005437-.6533911.1781282-.349527.177926-.7632561-.0005437-1.1126089-.7998094-1.5827966-.1683352-3.5143382 1.412-4.319.3433067-.1817947.5804523-.5151977.6395515-.8991457.0590992-.3839481-.0668064-.7732338-.3395515-1.0498543-1.2365518-1.2643415-1.2329941-3.2860184.008-4.546.2200972-.2292035.3420805-.535238.34-.853.0014196-.4621571-.2551128-.8864965-.665-1.1-1.5723563-.8088717-2.1975329-2.7348622-1.4-4.313.0857913-.1679436.1316489-.3534273.134-.542-.0043512-.602886-.4413784-1.1154228-1.036-1.215-1.5598534-.2566452-2.7016796-1.6091983-2.693-3.19-.0035448-.1707413.0085053-.3414497.036-.51.0461337-.346222-.0595947-.6954903-.29-.958-.2539512-.2826512-.6202795-.4379745-1-.424-.0284561-.0005614-.0569049.0014467-.085.006-.1676278.026678-.3372965.0383908-.507.035-1.5816153.005807-2.9328295-1.1389304-3.187-2.7-.0588203-.38871445-.301502-.72519997-.6517776-.90370966-.3502757-.17850969-.7651431-.17712844-1.1142224.00370966-1.5827966.79980939-3.5143382.16833524-4.319-1.412-.1820644-.34184617-.5146183-.57786957-.8973982-.63691017s-.7709956.06581011-1.0476018.33691017c-1.2794317 1.19967713-3.2705683 1.19967713-4.55 0-.2866904-.25316139-.6718866-.36425011-1.0493585-.30262996-.3774719.06162016-.7073432.28943961-.8986415.62062996-.8088717 1.57235628-2.7348622 2.19753287-4.313 1.4-.3491351-.18036087-.7637728-.18150426-1.1138972-.00307164-.3501245.17843262-.5928636.5145925-.6521028.90307164-.2557666 1.5606489-1.6085548 2.7035217-3.19 2.695-.1707413.0035448-.3414497-.0085053-.51-.036-.34633-.0474843-.6961495.0584109-.958.29-.2692012.2322791-.4236746.5704407-.423.926-.0028325.0543782-.0011601.1088976.005.163.026678.1676278.0383908.3372965.035.507.005807 1.5816153-1.1389304 2.9328295-2.7 3.187-.38754396.0608974-.72241553.303864-.90054371.6533911-.17812817.349527-.17792599.7632561.00054371 1.1126089.79980939 1.5827966.16833524 3.5143382-1.412 4.319-.34330672.1817947-.58045225.5151977-.63955149.8991457-.05909924.3839481.06680637.7732338.33955149 1.0498543 1.23655185 1.2643415 1.23299412 3.2860184-.008 4.546-.21973207.2293623-.34134907.535378-.339.853-.00141965.4621571.2551128.8864965.665 1.1 1.57235628.8088717 2.19753287 2.7348622 1.4 4.313-.08579134.1679436-.13164894.3534273-.134.542.00435119.602886.44137842 1.1154228 1.036 1.215 1.5598534.2566452 2.7016796 1.6091983 2.693 3.19 0 .5522847-.4477153 1-1 1s-1-.4477153-1-1c.00359368-.6008518-.43015649-1.1151616-1.023-1.213-1.01393645-.1650636-1.88857692-.8033057-2.35508895-1.7185541-.46651202-.9152484-.46907867-1.9979961-.00691105-2.9154459.08790485-.1711359.13415972-.3606096.135-.553.00448286-.4596362-.25206826-.8820542-.662-1.09-.91132622-.4700618-1.54510906-1.3451511-1.7075072-2.3576236-.16239813-1.0124724.16590824-2.0418785.8845072-2.7733764.47038375-.481044.47392512-1.2486362.008-1.734-.72077385-.7282681-1.05298525-1.7554823-.89516544-2.7678964s.78692505-1.8897738 1.69516544-2.3641036c.29127377-.1454886.512309-.4013688.61391562-.7106962.10160663-.3093274.07535396-.6464358-.07291562-.9363038-.46301232-.9164782-.46163122-1.99873.00371868-2.9140235.46534991-.9152935 1.33897384-1.554083 2.35228132-1.7199765.59481048-.09548 1.03170844-.6095774 1.03-1.212.00450625-.0502325.00450625-.1007675 0-.151-.02736547-.1715903-.03941295-.3452748-.036-.519-.00005016-.938267.4085191-1.8300373 1.1191391-2.442707.71062-.61266963 1.6528268-.88548736 2.5808609-.747293.0615126.00951617.1238217.01286612.186.01.6008518.00359368 1.1151616-.43015649 1.213-1.023.1650636-1.01393645.8033057-1.88857692 1.7185541-2.35508895.9152484-.46651202 1.9979961-.46907867 2.9154459-.00691105.59956.30409209 1.332181.06910044 1.643-.527.4700618-.91132622 1.3451511-1.54510906 2.3576236-1.7075072 1.0124724-.16239813 2.0418785.16590824 2.7733764.8845072.4863543.45726056 1.2434472.46075349 1.734.008.7296335-.72064516 1.7581305-1.05198387 2.7712177-.89277037 1.0130871.1592135 1.8903705.7900585 2.3637823 1.69977037.308004.59960359 1.0417699.83883627 1.644.536.9164782-.46301232 1.99873-.46163122 2.9140235.00371868.9152935.46534991 1.554083 1.33897384 1.7199765 2.35228132.1151896.61594318.6648804 1.05407782 1.291 1.029.0246266.00198728.0493734.00198728.074 0 1.1055659-.18492172 2.2272941.22211731 2.957 1.073.6141922.7135154.8882305 1.658601.751 2.59-.0100186.0614593-.0133714.1238208-.01.186-.0035937.6008518.4301565 1.1151616 1.023 1.213 1.0139364.1650636 1.8885769.8033057 2.3550889 1.7185541.4665121.9152484.4690787 1.9979961.0069111 2.9154459-.0879049.1711359-.1341597.3606096-.135.553-.0046727.4594142.2514565.8817756.661 1.09.9113262.4700618 1.5451091 1.3451511 1.7075072 2.3576236.1623981 1.0124724-.1659082 2.0418785-.8845072 2.7733764-.4703837.481044-.4739251 1.2486362-.008 1.734.7207739.7282681 1.0529852 1.7554823.8951654 2.7678964s-.786925 1.8897738-1.6951654 2.3641036c-.2912738.1454886-.512309.4013688-.6139156.7106962s-.075354.6464358.0729156.9363038c.4630123.9164782.4616312 1.99873-.0037187 2.9140235s-1.3389738 1.554083-2.3522813 1.7199765c-.5948105.09548-1.0317084.6095774-1.03 1.212 0 .5522847-.4477153 1-1 1z"/><circle id="Oval" cx="21" cy="24" r="4"/><path id="Shape" d="m14.5 22.369c-.0850523.0006385-.1698067-.010124-.252-.032-.2567314-.0665664-.4765035-.2323941-.6109676-.4610018s-.1726052-.5012685-.1060324-.7579982c.9534143-3.8695842 4.5911579-6.4619015 8.56-6.1.5403288.0591475.9344636.5390655.8874342 1.0805836-.0470295.5415182-.5179985.9463042-1.0604342.9114164-.216-.011-5.161-.359-6.451 4.612-.1150317.4398789-.512329.746788-.967.747z"/><circle id="Oval" cx="33" cy="24" r="4"/><path id="Shape" d="m39.5 22.369c-.4552462-.0004494-.8527334-.3083272-.967-.749-.7164133-2.9180902-3.4549499-4.8768574-6.448-4.612-.3590221.0373346-.7103008-.12171-.9191148-.4161374s-.2427513-.6785369-.0887966-1.0050161c.1539548-.3264792.471905-.5446524.8319114-.5708465 3.9693156-.363653 7.6080867 2.2293966 8.56 6.1.0777216.2997344.0122056.6185654-.1774113.8633649s-.4819417.3879488-.7915887.3876351z"/></g><path id="Shape" d="m34.92 34.14c-.2926197 2.0337624-1.3604313 3.8755583-2.98 5.14-2.8940801 2.293359-6.9859199 2.293359-9.88 0-1.6195687-1.2644417-2.6873803-3.1062376-2.98-5.14-.0408059-.2884984.0462452-.5804464.2383855-.7994864.1921404-.21904.4702587-.3433852.7616145-.3405136h13.84c.2913558-.0028716.5694741.1214736.7616145.3405136.1921403.21904.2791914.510988.2383855.7994864z" fill="#802d40"/><path id="Shape" d="m22.16 56.54c-1.78 1.13-4.97 2.46-10.16 2.46-1.3905779-1.6811593-2.10376676-3.8207259-2-6-.04143292-1.8348461.4444581-3.643055 1.4-5.21.1739523-.2821372.3748956-.5467125.6-.79 5.19 0 8.38 1.33 10.16 2.46z" fill="#c03a2b"/><path id="Shape" d="m31.84 56.54c1.78 1.13 4.97 2.46 10.16 2.46 1.3905779-1.6811593 2.1037668-3.8207259 2-6 .0414329-1.8348461-.4444581-3.643055-1.4-5.21-.1739523-.2821372-.3748956-.5467125-.6-.79-5.19 0-8.38 1.33-10.16 2.46z" fill="#c03a2b"/><circle id="Oval" cx="27" cy="53" fill="#e64c3c" r="6"/><circle id="Oval" cx="22" cy="24" fill="#3f5c6c" r="2"/><circle id="Oval" cx="32" cy="24" fill="#3f5c6c" r="2"/><circle id="Oval" cx="21" cy="23" fill="#ecf0f1" r="1"/><circle id="Oval" cx="31" cy="23" fill="#ecf0f1" r="1"/><path id="Shape" d="m31.94 39.28c-2.8940801 2.293359-6.9859199 2.293359-9.88 0 .3538457-2.4561751 2.4584676-4.2793252 4.94-4.2793252s4.5861543 1.8231501 4.94 4.2793252z" fill="#ff5364"/></g></g></svg>