<svg height="512" viewBox="0 0 50 58" width="512" xmlns="http://www.w3.org/2000/svg"><g id="Page-1" fill="none" fill-rule="evenodd"><g id="021---Happy-Bauble" fill-rule="nonzero"><path id="Shape" d="m50 33c0 .11 0 .21-.01.32-.001195.7920306-.0479388 1.583337-.14 2.37-.0811161.8131633-.2079838 1.6211103-.38 2.42-.4074794 1.9795987-1.0591289 3.9009572-1.94 5.72v.01c-.5374637 1.1189392-1.1592572 2.1953773-1.86 3.22-4.6523602 6.8402892-12.3872265 10.9362523-20.6597107 10.9402555-8.2724843.0040031-16.01131115-4.0844722-20.6702893-10.9202555-.70074281-1.0246227-1.32253628-2.1010608-1.86-3.22-.89006383-1.8231954-1.54529215-3.7519188-1.95-5.74-.17201617-.7988897-.29888389-1.6068367-.38-2.42-.09206194-.7833154-.13880644-1.5712941-.14-2.36-.01-.11-.01-.23-.01-.34 0-.66.03-1.31.07-1.96v-.01c.06-.74.15-1.46.28-2.18.11669643-.7240183.27022903-1.4416163.46-2.15 2.13413427-8.1971542 8.27242029-14.7569534 16.31-17.43h15.76c8.0345925 2.6719486 14.1720713 9.2271222 16.31 17.42.19.7.34 1.41.46 2.13s.21 1.45.27 2.19v.01c.05.66.08 1.31.08 1.98z" fill="#e64c3c"/><path id="Shape" d="m33 10c0 1.66-3.58 3-8 3s-8-1.34-8-3l1-6c.3670252-.22967954.7477337-.43673156 1.14-.62.6923532-.32522215 1.4076005-.59928889 2.14-.82.01-.02.02-.05.03-.07.6129743-1.51753588 2.0922653-2.50528758 3.7288513-2.48982725 1.6365859.01546033 3.0969527 1.03098206 3.6811487 2.55982725.7346523.2236204 1.4530207.49760278 2.15.82.3884613.18440228.7657755.39142424 1.13.62z" fill="#f0c419"/><path id="Shape" d="m21.31 2.49c-.1289049.49289526-.1927801 1.00053511-.19 1.51 0 .55228475-.4477153 1-1 1s-1-.44771525-1-1c0-.21.01-.41.02-.62.6923532-.32522215 1.4076005-.59928889 2.14-.82.01-.02.02-.05.03-.07z" fill="#f29c1f"/><path id="Shape" d="m30.89 4c0 .55228475-.4477153 1-1 1s-1-.44771525-1-1c-.000479-.48497747-.0575313-.96824354-.17-1.44.7346523.2236204 1.4530207.49760278 2.15.82.01.21.02.41.02.62z" fill="#f29c1f"/><path id="Shape" d="m14.053 21.053c-.4043959-.0000863-.7689341-.2437275-.923678-.6173454-.1547439-.373618-.0692299-.8036603.216678-1.0896546 2.3158317-2.3032642 5.7898343-2.9873342 8.806-1.734.5141771.2018601.7673601.7823229.5655 1.2965s-.7823229.7673601-1.2965.5655c-2.2764255-.9546024-4.9035317-.4474025-6.661 1.286-.1874927.1875494-.4418052.2929434-.707.293z" fill="#802f34"/><circle id="Oval" cx="19" cy="25" fill="#ecf0f1" r="4"/><path id="Shape" d="m35.947 21.053c-.2651948-.0000566-.5195073-.1054506-.707-.293-1.7572064-1.7338999-4.3846324-2.2411615-6.661-1.286-.5141771.20186-1.0946399-.0513229-1.2965-.5655-.20186-.5141771.0513229-1.0946399.5655-1.2965 3.0161096-1.2538945 6.4904327-.5697614 8.806 1.734.2859079.2859943.3714219.7160366.216678 1.0896546-.1547439.3736179-.5192821.6172591-.923678.6173454z" fill="#802f34"/><circle id="Oval" cx="31" cy="25" fill="#ecf0f1" r="4"/><path id="Shape" d="m21 45.44c-5.22-1.49-9-5.82-9-10.94.0000907-1.7489594.4439388-3.469301 1.29-5 2.4378015 4.1278109 6.9174415 6.6143745 11.71 6.5 4.7925585.1143745 9.2721985-2.3721891 11.71-6.5.8460612 1.530699 1.2899093 3.2510406 1.29 5 0 5.12-3.78 9.45-9 10.94z" fill="#802d40"/><path id="Shape" d="m21 40h8v9c0 2.209139-1.790861 4-4 4s-4-1.790861-4-4z" fill="#fb7b76"/><path id="Shape" d="m25 46c-.5522847 0-1-.4477153-1-1v-5c0-.5522847.4477153-1 1-1s1 .4477153 1 1v5c0 .5522847-.4477153 1-1 1z" fill="#ff5364"/><g fill="#f0c419"><path id="Shape" d="m9.01 40.11c-.1212918.435949-.5174958.7382078-.97.74-.09111561-.0042251-.18157307-.0176263-.27-.04-2.48799739-.6812238-4.91079097-1.5814053-7.24-2.69-.17201617-.7988897-.29888389-1.6068367-.38-2.42 2.59724148 1.3514345 5.33318908 2.4176494 8.16 3.18.25604173.0701124.47369791.2391555.60500257.4698766.13130466.230721.16548101.5041836.09499743.7601234z"/><path id="Shape" d="m7.85 35.62c-.13757212.4073117-.52008409.6811098-.95.68-.10882411.0030004-.21727822-.0139455-.32-.05-2.28195893-.7474457-4.48301968-1.7223448-6.57-2.91-.01-.11-.01-.23-.01-.34 0-.66.03-1.31.07-1.96 2.2399996 1.3897324 4.64103681 2.5012615 7.15 3.31.51982808.1822448.7994113.7458491.63 1.27z"/><path id="Shape" d="m8.81 31.72c-.1397915.3998911-.51638257.6683124-.94.67-.112094.0030234-.22383278-.0139067-.33-.05-2.5453831-.8280796-4.96473417-2.0024238-7.19-3.49.11669643-.7240183.27022903-1.4416163.46-2.15 2.2469892 1.6311369 4.73773744 2.896761 7.38 3.75.25166991.0847587.45890407.2667916.57540562.5054319s.13256235.5140019.04459438.7645681z"/><path id="Shape" d="m15.96 49.34c-.088968.4778647-.5039423.8257724-.99.83-.0570957-.0022968-.1139301-.0089832-.17-.02-3.6024929-.5767459-7.11723468-1.6083192-10.46-3.07-.70074281-1.0246227-1.32253628-2.1010608-1.86-3.22 3.91914834 2.2046799 8.2106582 3.6690814 12.66 4.32.5453326.0961488.9112807.6138315.82 1.16z"/><path id="Shape" d="m49.85 35.69c-.0811161.8131633-.2079838 1.6211103-.38 2.42-2.3397171 1.1108588-4.7723753 2.014322-7.27 2.7-.0882845.0230786-.1788164.0364907-.27.04-.5104795.0145671-.9499182-.3578493-1.0192626-.8638067-.0693444-.5059573.2536881-.9828748.7492626-1.1061933 2.8373469-.7639689 5.5834192-1.8335624 8.19-3.19z"/><path id="Shape" d="m50 33c0 .11 0 .21-.01.32-2.0937669 1.2002847-4.3053956 2.1821138-6.6 2.93-.1027218.0360545-.2111759.0530004-.32.05-.4299159.0011098-.8124279-.2726883-.95-.68-.1694113-.5241509.1101719-1.0877552.63-1.27 2.5154406-.817056 4.9229003-1.9351648 7.17-3.33.05.66.08 1.31.08 1.98z"/><path id="Shape" d="m49.65 28.82c-2.2333695 1.4997265-4.6629323 2.6842226-7.22 3.52-.1061672.0360933-.217906.0530234-.33.05-.4815954-.0099181-.8876818-.3617635-.9660777-.8370387-.0783959-.4752753.19318-.9389001.6460777-1.1029613 2.6555538-.8480938 5.1574809-2.1176277 7.41-3.76.19.7.34 1.41.46 2.13z"/><path id="Shape" d="m47.53 43.84c-.5374637 1.1189392-1.1592572 2.1953773-1.86 3.22-3.355254 1.4698617-6.883417 2.5081497-10.5 3.09-.0560699.0110168-.1129043.0177032-.17.02-.5316203.0174198-.9838465-.3843711-1.0291208-.9143465-.0452743-.5299753.3322489-1.0026494.8591208-1.0756535 4.4644123-.6524995 8.7699417-2.1238379 12.7-4.34z"/></g><path id="Shape" d="m32.59 33.83-1.4 5.42c-.1113578.4397784-.5063449.7483621-.96.75h-10.46c-.4536551-.0016379-.8486422-.3102216-.96-.75l-1.4-5.42c4.646411 2.8932754 10.533589 2.8932754 15.18 0z" fill="#ecf0f1"/><circle id="Oval" cx="20" cy="25" fill="#35495e" r="2"/><circle id="Oval" cx="30" cy="25" fill="#35495e" r="2"/><circle id="Oval" cx="19" cy="24" fill="#ecf0f1" r="1"/><circle id="Oval" cx="29" cy="24" fill="#ecf0f1" r="1"/></g></g></svg>