<svg height="512" viewBox="0 0 58 58" width="512" xmlns="http://www.w3.org/2000/svg"><g id="Page-1" fill="none" fill-rule="evenodd"><g id="024---Happy-Bauble" fill-rule="nonzero" transform="translate(0 -1)"><path id="Shape" d="m51.285 13.245c1.8034195.0935739 3.5607939-.588414 4.829-1.874 2.4418243-2.34481117 2.5250283-6.22363566.186-8.671-2.446572-2.33822784-6.3238447-2.25593251-8.669.184-1.285586 1.26820608-1.9675739 3.0255805-1.874 4.829l2.283 4.287z" fill="#f29c1f"/><path id="Shape" d="m39.64 10.87 3.22-3.22c.3751365-.37555409.8841815-.58657331 1.415-.58657331s1.0398635.21101922 1.415.58657331l5.66 5.66c.3755541.3751365.5865733.8841815.5865733 1.415s-.2110192 1.0398635-.5865733 1.415l-3.22 3.22z" fill="#f0c419"/><circle id="Oval" cx="26" cy="33" fill="#2fa8cc" r="26"/><path id="Shape" d="m15 38c-.5522847 0-1-.4477153-1-1 0-1.1045695-.8954305-2-2-2s-2 .8954305-2 2c0 .5522847-.44771525 1-1 1s-1-.4477153-1-1c0-2.209139 1.790861-4 4-4s4 1.790861 4 4c0 .5522847-.4477153 1-1 1z" fill="#35495e"/><path id="Shape" d="m30 38c-.5522847 0-1-.4477153-1-1 0-1.1045695-.8954305-2-2-2s-2 .8954305-2 2c0 .5522847-.4477153 1-1 1s-1-.4477153-1-1c0-2.209139 1.790861-4 4-4s4 1.790861 4 4c0 .5522847-.4477153 1-1 1z" fill="#35495e"/><path id="Shape" d="m26.11 44c.2547096-.0018112.4977654.1065823.6666204.2972869s.2470197.445097.2143796.6977131c-.5272488 3.4536111-3.4973742 6.0047123-6.991 6.0047123s-6.4637512-2.5511012-6.991-6.0047123c-.0326401-.2526161.0455246-.5070085.2143796-.6977131s.4119108-.2990981.6666204-.2972869z" fill="#802d40"/><g fill="#67b9cc"><circle id="Oval" cx="9.5" cy="23.5" r="2.5"/><circle id="Oval" cx="21.5" cy="17.5" r="5.5"/><circle id="Oval" cx="42.5" cy="32.5" r="4.5"/><circle id="Oval" cx="42" cy="44" r="2"/><circle id="Oval" cx="36.5" cy="18.5" r="2.5"/></g><path id="Shape" d="m25.42 48.47c-1.3435046 1.6034902-3.3280666 2.5297842-5.42 2.5297842s-4.0764954-.926294-5.42-2.5297842c1.6206918-1.0171543 3.5074682-1.5288815 5.42-1.47 1.9125318-.0588815 3.7993082.4528457 5.42 1.47z" fill="#ff5364"/></g></g></svg>