<svg height="512" viewBox="0 0 58 58" width="512" xmlns="http://www.w3.org/2000/svg"><g id="Page-1" fill="none" fill-rule="evenodd"><g id="026---Happy-Elf" fill-rule="nonzero" transform="translate(-1 -1)"><path id="Shape" d="m53.9 29.079c1.337-15.304-12.111-28.079-28.9-28.079-6.4133599-.04137325-12.6815532 1.90826548-17.94 5.58l1.21 5.72c1.327 2.328 3.034 7.364-3.4 11.492l.13 4.208z" fill="#26b99a"/><path id="Shape" d="m9.01 26.6c-.59138143-1.7764014-1.54479689-3.4108279-2.8-4.8-.4779142-.5021397-1.18176882-.7209932-1.86015688-.5783891s-1.23455398.6263268-1.46984312 1.2783891c-1.2909098 3.6947738-1.92712035 7.5864873-1.88 11.5 0 8.11 5.69 8.1 6.81 8.02z" fill="#f9c795"/><path id="Shape" d="m50.99 26.6c.5913814-1.7764014 1.5447969-3.4108279 2.8-4.8.4779142-.5021397 1.1817688-.7209932 1.8601569-.5783891.678388.1426041 1.234554.6263268 1.4698431 1.2783891 1.2909098 3.6947738 1.9271203 7.5864873 1.88 11.5 0 8.11-5.69 8.1-6.81 8.02z" fill="#f9c795"/><path id="Shape" d="m53 36c.0026276 8.0022061-4.1563152 15.4299719-10.98 19.61h-.01c-7.3687254 4.520081-16.6512746 4.520081-24.02 0h-.01c-6.8236848-4.1800281-10.98262762-11.6077939-10.98-19.61.00414313-4.1079522 1.10542907-8.1402468 3.19-11.68.7023316-1.1602776 1.7829706-2.0431525 3.06-2.5 5.3763596-1.9088323 11.0450006-2.8631946 16.75-2.82 5.7049994-.0431946 11.3736404.9111677 16.75 2.82 1.2770294.4568475 2.3576684 1.3397224 3.06 2.5 2.0910528 3.5370139 3.1928313 7.5711119 3.19 11.68z" fill="#fdd7ad"/><path id="Shape" d="m52.93 34.16c-12.83.08-17.18-7.74-17.18-7.74-10.22 9.43-23.66 5.97-28.16 4.42.52425692-2.2947183 1.40135467-4.4942096 2.6-6.52.7023316-1.1602776 1.7829706-2.0431525 3.06-2.5 5.3763596-1.9088323 11.0450006-2.8631946 16.75-2.82 5.7049994-.0431946 11.3736404.9111677 16.75 2.82 1.2770294.4568475 2.3576684 1.3397224 3.06 2.5 1.7744822 3.0001824 2.8415257 6.3654736 3.12 9.84z" fill="#cb8252"/><circle id="Oval" cx="24" cy="38" fill="#ecf0f1" r="4"/><circle id="Oval" cx="36" cy="38" fill="#ecf0f1" r="4"/><path id="Shape" d="m22.069 44c-.2872237.0000846-.5607426.1228158-.7517533.3373208s-.2813331.5003675-.2482467.7856792c.5611549 4.5056354 4.3905545 7.8876875 8.931 7.8876875s8.3698451-3.3820521 8.931-7.8876875c.0330864-.2853117-.057236-.5711742-.2482467-.7856792s-.4645296-.3372362-.7517533-.3373208z" fill="#802d40"/><circle id="Oval" cx="5" cy="10" fill="#f0c419" r="4"/><circle id="Oval" cx="15" cy="43" fill="#fb7b76" r="3"/><circle id="Oval" cx="45" cy="43" fill="#fb7b76" r="3"/><path id="Shape" d="m35.54 51.09c-2.0545143 1.6106097-4.7089174 2.2459139-7.27 1.74h-.02c-1.3819204-.2759449-2.6799513-.8718747-3.79-1.74 1.1237806-1.9846977 3.260879-3.1766894 5.54-3.09 2.2803368-.0917709 4.4199042 1.1015979 5.54 3.09z" fill="#ff5364"/><circle id="Oval" cx="25" cy="38" fill="#35495e" r="2"/><circle id="Oval" cx="35" cy="38" fill="#35495e" r="2"/><g fill="#ecf0f1"><circle id="Oval" cx="24" cy="37" r="1"/><circle id="Oval" cx="34" cy="37" r="1"/></g></g></g></svg>