<svg height="512" viewBox="0 0 58 58" width="512" xmlns="http://www.w3.org/2000/svg"><g id="Page-1" fill="none" fill-rule="evenodd"><g id="033---Kissing-Present" fill-rule="nonzero"><path id="Shape" d="m54 22s-.29.98-.75 2.67c-1.52 5.66-4.87 19.34-5.22 31.36-.0232654 1.0898859-.9098869 1.9632082-2 1.97h-34.06c-1.0901131-.0067918-1.97673463-.8801141-2-1.97-.35-12.02-3.7-25.7-5.22-31.36-.46-1.69-.75-2.67-.75-2.67l25-2z" fill="#e64c3c"/><path id="Shape" d="m54 22s-.29.98-.75 2.67h-48.5c-.46-1.69-.75-2.67-.75-2.67l25-2z" fill="#c03a2b"/><path id="Shape" d="m25.66 4.843c-2.0958296-2.22864715-4.7388783-3.86943361-7.666-4.759-.5067262-.14630687-1.0508761-.08450357-1.5118842.17171633-.4610082.2562199-.8008097.6857007-.9441158 1.19328367-1.0006014 3.31651237-2.9208249 6.28145119-5.538 8.551l16 1z" fill="#f0c419"/><path id="Shape" d="m32.34 4.843c2.0958296-2.22864715 4.7388783-3.86943361 7.666-4.759.5067262-.14630687 1.0508761-.08450357 1.5118842.17171633.4610082.2562199.8008097.6857007.9441158 1.19328367 1.0006014 3.31651237 2.9208249 6.28145119 5.538 8.551l-16 1z" fill="#f0c419"/><path id="Shape" d="m54.624 22h-51.248c-.98503511.0054701-1.8302294-.7006897-2-1.671l-1.35-8c-.09462465-.5841596.07324343-1.180314.45877734-1.6292683.38553391-.4489542.94947215-.70498826 1.54122266-.6997317h53.948c.5917505-.00525656 1.1556888.2507775 1.5412227.6997317.3855339.4489543.5534019 1.0451087.4587773 1.6292683l-1.35 8c-.1697706.9703103-1.0149649 1.6764701-2 1.671z" fill="#e64c3c"/><path id="Shape" d="m24 10c-3.1503856.7814422-5.7459276 3.0061924-7 6l9 2s-2-4 2-8z" fill="#f0c419"/><path id="Shape" d="m34 10c3.1503856.7814422 5.7459276 3.0061924 7 6l-9 2s2-4-2-8z" fill="#f0c419"/><path id="Shape" d="m26 5h6c1.1045695 0 2 .8954305 2 2v3h-10v-3c0-1.1045695.8954305-2 2-2z" fill="#f3d55b"/><path id="Shape" d="m40.947 30.053c-.2651948-.0000566-.5195073-.1054506-.707-.293-1.7572064-1.7338999-4.3846324-2.2411615-6.661-1.286-.5141771.20186-1.0946399-.0513229-1.2965-.5655-.20186-.5141771.0513229-1.0946399.5655-1.2965 3.0160535-1.2544553 6.4906972-.570259 8.806 1.734.2859079.2859943.3714219.7160366.216678 1.0896546-.1547439.3736179-.5192821.6172591-.923678.6173454z" fill="#802f34"/><path id="Shape" d="m39 35c-.262482-.0013707-.5139013-.1058893-.7-.291-.5917888-.6388486-1.423172-1.001984-2.294-1.001984s-1.7022112.3631354-2.294 1.001984c-.3923789.3789722-1.0160848.3735524-1.4018186-.0121814s-.3911536-1.0094397-.0121814-1.4018186c.9565988-1.0318245 2.2999666-1.6182608 3.707-1.6182608s2.7504012.5864363 3.707 1.6182608c.2851253.2868237.3694145.7171518.213569 1.0903493-.1558456.3731976-.5211398.6157817-.925569.6146507z" fill="#35495e"/><path id="Shape" d="m17.053 30.053c-.4043959-.0000863-.7689341-.2437275-.923678-.6173454-.1547439-.373618-.0692299-.8036603.216678-1.0896546 2.3153028-2.304259 5.7899465-2.9884553 8.806-1.734.5141771.2018601.7673601.7823229.5655 1.2965s-.7823229.7673601-1.2965.5655c-2.2764255-.9546024-4.9035317-.4474025-6.661 1.286-.1874927.1875494-.4418052.2929434-.707.293z" fill="#802f34"/><path id="Shape" d="m25 35c-.2651948-.0000566-.5195073-.1054506-.707-.293-.5874874-.6457295-1.420012-1.013819-2.293-1.013819s-1.7055126.3680895-2.293 1.013819c-.3923789.3789722-1.0160848.3735524-1.4018186-.0121814s-.3911536-1.0094397-.0121814-1.4018186c.9564444-1.0320997 2.2998697-1.6187319 3.707-1.6187319s2.7505556.5866322 3.707 1.6187319c.2859079.2859943.3714219.7160366.216678 1.0896546-.1547439.3736179-.5192821.6172591-.923678.6173454z" fill="#35495e"/><path id="Shape" d="m28.8 51.292c-.7782628.0073915-1.5476751-.1654525-2.248-.505-.3193954-.1607695-.5287595-.4797221-.5492267-.8367114-.0204673-.3569894.1510718-.6977802.45-.8940001.2989282-.1962198.6798313-.218058.9992267-.0572885.4227204.1986222.8849779.2988008 1.352.293 1.221 0 2-.592 2-1s-.779-1-2-1c-.5522847 0-1-.4477153-1-1s.4477153-1 1-1c1.221 0 2-.592 2-1s-.779-1-2-1c-.4670994-.0054882-.9293605.0950331-1.352.294-.4937426.2485281-1.0954718.0497425-1.344-.444-.2485281-.4937426-.0497425-1.0954719.444-1.344.700254-.3398585 1.4696621-.5130438 2.248-.506 2.243 0 4 1.318 4 3-.0159068.7819137-.3809475 1.5156638-.995 2 .6137158.4846097.978672 1.2181899.995 2 0 1.683-1.757 3-4 3z" fill="#802d40"/><path id="Shape" d="m44.581 42.938c.2280613-1.689077-.4797752-3.3686566-1.848-4.385-1.956-1.289-4.463-.418-5.836 1.665-1.897 2.882-.467 6.562 1.054 12.782 6.316-1.057 10.262-1.193 12.161-4.075 1.373-2.083 1.183-4.73-.772-6.019-1.473817-.8566895-3.2968367-.8444314-4.759.032z" fill="#fb7b76"/></g></g></svg>